<svg width="3796" height="128" viewBox="0 0 3796 128" fill="none" xmlns="http://www.w3.org/2000/svg">
<path d="M20.25 71.75V69.75H17.822L18.287 72.133L20.25 71.75ZM47 71.75V73.75H49V71.75H47ZM47 57.75H49V55.75H47V57.75ZM20.5 57.75L18.5567 57.2773L17.9552 59.75H20.5V57.75ZM55.75 54.5L53.902 55.2647L54.6324 57.03L56.4293 56.3811L55.75 54.5ZM73.75 48L74.4293 49.8811L76.306 49.2034L75.6327 47.3251L73.75 48ZM73.75 83L75.6327 83.6749L76.306 81.7966L74.4293 81.1189L73.75 83ZM55.75 76.5L56.4293 74.6189L54.6324 73.97L53.902 75.7353L55.75 76.5ZM38.5 86.25C34.0781 86.25 30.5128 84.8445 27.8222 82.3713C25.111 79.8792 23.151 76.1745 22.213 71.367L18.287 72.133C19.349 77.5755 21.639 82.1208 25.1153 85.3162C28.6122 88.5305 33.1719 90.25 38.5 90.25V86.25ZM20.25 73.75H47V69.75H20.25V73.75ZM49 71.75V57.75H45V71.75H49ZM47 55.75H20.5V59.75H47V55.75ZM22.4433 58.2227C23.4866 53.9338 25.4823 50.5817 28.1676 48.3074C30.8403 46.0438 34.3095 44.75 38.5 44.75V40.75C33.4405 40.75 29.0347 42.3312 25.5824 45.2551C22.1427 48.1683 19.7634 52.3162 18.5567 57.2773L22.4433 58.2227ZM38.5 44.75C45.8752 44.75 51.1855 48.6999 53.902 55.2647L57.598 53.7353C54.3145 45.8001 47.6248 40.75 38.5 40.75V44.75ZM56.4293 56.3811L74.4293 49.8811L73.0707 46.1189L55.0707 52.6189L56.4293 56.3811ZM75.6327 47.3251C70.5263 33.0809 56.361 24.75 38.75 24.75V28.75C55.139 28.75 67.4737 36.4191 71.8673 48.6749L75.6327 47.3251ZM38.75 24.75C26.6705 24.75 16.4488 28.7852 9.24204 35.992C2.03523 43.1988 -2 53.4205 -2 65.5H2C2 54.3295 5.71477 45.1762 12.0705 38.8205C18.4262 32.4648 27.5795 28.75 38.75 28.75V24.75ZM-2 65.5C-2 77.5795 2.03523 87.8012 9.24204 95.008C16.4488 102.215 26.6705 106.25 38.75 106.25V102.25C27.5795 102.25 18.4262 98.5352 12.0705 92.1795C5.71477 85.8238 2 76.6705 2 65.5H-2ZM38.75 106.25C56.361 106.25 70.5263 97.9191 75.6327 83.6749L71.8673 82.3251C67.4737 94.5809 55.139 102.25 38.75 102.25V106.25ZM74.4293 81.1189L56.4293 74.6189L55.0707 78.3811L73.0707 84.8811L74.4293 81.1189ZM53.902 75.7353C51.1855 82.3001 45.8752 86.25 38.5 86.25V90.25C47.6248 90.25 54.3145 85.1999 57.598 77.2647L53.902 75.7353ZM156.25 85H154.25V87H156.25V85ZM156.25 28H158.25V26H156.25V28ZM90.75 28V26H88.75V28H90.75ZM89.25 85V87H90.9322L91.2204 85.3427L89.25 85ZM80 85V83H78V85H80ZM80 120.5H78V122.5H80V120.5ZM99.25 120.5V122.5H101.25V120.5H99.25ZM99.25 103V101H97.25V103H99.25ZM147 103H149V101H147V103ZM147 120.5H145V122.5H147V120.5ZM166.25 120.5V122.5H168.25V120.5H166.25ZM166.25 85H168.25V83H166.25V85ZM108.75 85.5L106.77 85.2172L106.444 87.5H108.75V85.5ZM110.25 45.5V43.5H108.25V45.5H110.25ZM136.5 45.5H138.5V43.5H136.5V45.5ZM136.5 85.5V87.5H138.5V85.5H136.5ZM158.25 85V28H154.25V85H158.25ZM156.25 26H90.75V30H156.25V26ZM88.75 28V59.25H92.75V28H88.75ZM88.75 59.25C88.75 70.9699 88.2493 79.0812 87.2796 84.6573L91.2204 85.3427C92.2507 79.4188 92.75 71.0301 92.75 59.25H88.75ZM89.25 83H80V87H89.25V83ZM78 85V120.5H82V85H78ZM80 122.5H99.25V118.5H80V122.5ZM101.25 120.5V103H97.25V120.5H101.25ZM99.25 105H147V101H99.25V105ZM145 103V120.5H149V103H145ZM147 122.5H166.25V118.5H147V122.5ZM168.25 120.5V85H164.25V120.5H168.25ZM166.25 83H156.25V87H166.25V83ZM110.73 85.7828C111.748 78.6587 112.25 69.8079 112.25 60H108.25C108.25 69.6921 107.752 78.3413 106.77 85.2172L110.73 85.7828ZM112.25 60V45.5H108.25V60H112.25ZM110.25 47.5H136.5V43.5H110.25V47.5ZM134.5 45.5V85.5H138.5V45.5H134.5ZM136.5 83.5H108.75V87.5H136.5V83.5ZM231 28V26H229.928L229.335 26.8927L231 28ZM200.25 74.25H198.25V80.8704L201.915 75.3573L200.25 74.25ZM200.25 28H202.25V26H200.25V28ZM180.75 28V26H178.75V28H180.75ZM180.75 103H178.75V105H180.75V103ZM200.5 103V105H201.572L202.165 104.107L200.5 103ZM231.25 56.75H233.25V50.1296L229.585 55.6427L231.25 56.75ZM231.25 103H229.25V105H231.25V103ZM250.75 103V105H252.75V103H250.75ZM250.75 28H252.75V26H250.75V28ZM229.335 26.8927L198.585 73.1427L201.915 75.3573L232.665 29.1073L229.335 26.8927ZM202.25 74.25V28H198.25V74.25H202.25ZM200.25 26H180.75V30H200.25V26ZM178.75 28V103H182.75V28H178.75ZM180.75 105H200.5V101H180.75V105ZM202.165 104.107L232.915 57.8573L229.585 55.6427L198.835 101.893L202.165 104.107ZM229.25 56.75V103H233.25V56.75H229.25ZM231.25 105H250.75V101H231.25V105ZM252.75 103V28H248.75V103H252.75ZM250.75 26H231V30H250.75V26ZM320.75 28V26H318.75V28H320.75ZM320.75 55.75V57.75H322.75V55.75H320.75ZM291.25 55.75H289.25V57.75H291.25V55.75ZM291.25 28H293.25V26H291.25V28ZM271.25 28V26H269.25V28H271.25ZM271.25 103H269.25V105H271.25V103ZM291.25 103V105H293.25V103H291.25ZM291.25 73.75V71.75H289.25V73.75H291.25ZM320.75 73.75H322.75V71.75H320.75V73.75ZM320.75 103H318.75V105H320.75V103ZM340.75 103V105H342.75V103H340.75ZM340.75 28H342.75V26H340.75V28ZM318.75 28V55.75H322.75V28H318.75ZM320.75 53.75H291.25V57.75H320.75V53.75ZM293.25 55.75V28H289.25V55.75H293.25ZM291.25 26H271.25V30H291.25V26ZM269.25 28V103H273.25V28H269.25ZM271.25 105H291.25V101H271.25V105ZM293.25 103V73.75H289.25V103H293.25ZM291.25 75.75H320.75V71.75H291.25V75.75ZM318.75 73.75V103H322.75V73.75H318.75ZM320.75 105H340.75V101H320.75V105ZM342.75 103V28H338.75V103H342.75ZM340.75 26H320.75V30H340.75V26ZM411.5 28V26H410.428L409.835 26.8927L411.5 28ZM380.75 74.25H378.75V80.8704L382.415 75.3573L380.75 74.25ZM380.75 28H382.75V26H380.75V28ZM361.25 28V26H359.25V28H361.25ZM361.25 103H359.25V105H361.25V103ZM381 103V105H382.072L382.665 104.107L381 103ZM411.75 56.75H413.75V50.1296L410.085 55.6427L411.75 56.75ZM411.75 103H409.75V105H411.75V103ZM431.25 103V105H433.25V103H431.25ZM431.25 28H433.25V26H431.25V28ZM409.835 26.8927L379.085 73.1427L382.415 75.3573L413.165 29.1073L409.835 26.8927ZM382.75 74.25V28H378.75V74.25H382.75ZM380.75 26H361.25V30H380.75V26ZM359.25 28V103H363.25V28H359.25ZM361.25 105H381V101H361.25V105ZM382.665 104.107L413.415 57.8573L410.085 55.6427L379.335 101.893L382.665 104.107ZM409.75 56.75V103H413.75V56.75H409.75ZM411.75 105H431.25V101H411.75V105ZM433.25 103V28H429.25V103H433.25ZM431.25 26H411.5V30H431.25V26ZM512 2.25L513.989 2.46157L514.195 0.520775L512.26 0.266981L512 2.25ZM496.75 0.25L497.01 -1.73302L495.123 -1.98053L494.782 -0.107771L496.75 0.25ZM476.75 0.25L478.718 -0.107771L478.377 -1.98053L476.49 -1.73302L476.75 0.25ZM461.5 2.25L461.24 0.266981L459.305 0.520775L459.511 2.46157L461.5 2.25ZM502 28V26H500.928L500.335 26.8927L502 28ZM471.25 74.25H469.25V80.8704L472.915 75.3573L471.25 74.25ZM471.25 28H473.25V26H471.25V28ZM451.75 28V26H449.75V28H451.75ZM451.75 103H449.75V105H451.75V103ZM471.5 103V105H472.572L473.165 104.107L471.5 103ZM502.25 56.75H504.25V50.1296L500.585 55.6427L502.25 56.75ZM502.25 103H500.25V105H502.25V103ZM521.75 103V105H523.75V103H521.75ZM521.75 28H523.75V26H521.75V28ZM486.75 23C494.305 23 500.759 21.1771 505.534 17.6382C510.348 14.0709 513.307 8.86652 513.989 2.46157L510.011 2.03843C509.443 7.38348 507.027 11.5541 503.153 14.4243C499.241 17.3229 493.695 19 486.75 19V23ZM512.26 0.266981L497.01 -1.73302L496.49 2.23302L511.74 4.23302L512.26 0.266981ZM494.782 -0.107771C494.359 2.21884 493.337 3.82598 492.014 4.86486C490.677 5.91541 488.886 6.5 486.75 6.5V10.5C489.614 10.5 492.323 9.70959 494.486 8.01014C496.663 6.29902 498.141 3.78116 498.718 0.607771L494.782 -0.107771ZM486.75 6.5C484.614 6.5 482.823 5.91541 481.486 4.86486C480.163 3.82598 479.141 2.21884 478.718 -0.107771L474.782 0.607771C475.359 3.78116 476.837 6.29902 479.014 8.01014C481.177 9.70959 483.886 10.5 486.75 10.5V6.5ZM476.49 -1.73302L461.24 0.266981L461.76 4.23302L477.01 2.23302L476.49 -1.73302ZM459.511 2.46157C460.193 8.86652 463.152 14.0709 467.966 17.6382C472.741 21.1771 479.195 23 486.75 23V19C479.805 19 474.259 17.3229 470.347 14.4243C466.473 11.5541 464.057 7.38348 463.489 2.03843L459.511 2.46157ZM500.335 26.8927L469.585 73.1427L472.915 75.3573L503.665 29.1073L500.335 26.8927ZM473.25 74.25V28H469.25V74.25H473.25ZM471.25 26H451.75V30H471.25V26ZM449.75 28V103H453.75V28H449.75ZM451.75 105H471.5V101H451.75V105ZM473.165 104.107L503.915 57.8573L500.585 55.6427L469.835 101.893L473.165 104.107ZM500.25 56.75V103H504.25V56.75H500.25ZM502.25 105H521.75V101H502.25V105ZM523.75 103V28H519.75V103H523.75ZM521.75 26H502V30H521.75V26ZM601.25 38.5L599.259 38.6896L599.741 43.7549L602.837 39.7169L601.25 38.5ZM600.25 28L602.241 27.8104L602.069 26H600.25V28ZM582.25 28V26H580.25V28H582.25ZM582.25 128H580.25V130H582.25V128ZM602.25 128V130H604.25V128H602.25ZM602.25 94.25L603.722 92.8959L600.25 89.1221V94.25H602.25ZM625.5 24.75C614.631 24.75 605.793 29.2874 599.663 37.2831L602.837 39.7169C608.207 32.7126 615.869 28.75 625.5 28.75V24.75ZM603.241 38.3104L602.241 27.8104L598.259 28.1896L599.259 38.6896L603.241 38.3104ZM600.25 26H582.25V30H600.25V26ZM580.25 28V128H584.25V28H580.25ZM582.25 130H602.25V126H582.25V130ZM604.25 128V94.25H600.25V128H604.25ZM600.778 95.6041C606.899 102.257 615.179 106.25 625.5 106.25V102.25C616.321 102.25 609.101 98.7428 603.722 92.8959L600.778 95.6041ZM625.5 106.25C635.588 106.25 644.155 102.115 650.164 94.8706C656.148 87.6565 659.5 77.4852 659.5 65.5H655.5C655.5 76.7648 652.352 85.9685 647.086 92.3169C641.845 98.6347 634.412 102.25 625.5 102.25V106.25ZM659.5 65.5C659.5 53.4128 656.285 43.2358 650.356 36.0406C644.394 28.8062 635.816 24.75 625.5 24.75V28.75C634.684 28.75 642.106 32.3188 647.269 38.5844C652.465 44.8892 655.5 54.0872 655.5 65.5H659.5ZM619.25 85.75C614.18 85.75 610.344 83.8623 607.727 80.5428C605.06 77.162 603.5 72.0895 603.5 65.5H599.5C599.5 72.6605 601.19 78.713 604.586 83.0197C608.031 87.3877 613.07 89.75 619.25 89.75V85.75ZM603.5 65.5C603.5 58.9105 605.06 53.838 607.727 50.4572C610.344 47.1377 614.18 45.25 619.25 45.25V41.25C613.07 41.25 608.031 43.6123 604.586 47.9803C601.19 52.287 599.5 58.3395 599.5 65.5H603.5ZM619.25 45.25C624.324 45.25 628.229 47.1415 630.911 50.4728C633.635 53.8571 635.25 58.9268 635.25 65.5H639.25C639.25 58.3232 637.49 52.2679 634.027 47.9647C630.521 43.6085 625.426 41.25 619.25 41.25V45.25ZM635.25 65.5C635.25 72.0732 633.635 77.1429 630.911 80.5272C628.229 83.8585 624.324 85.75 619.25 85.75V89.75C625.426 89.75 630.521 87.3915 634.027 83.0353C637.49 78.7321 639.25 72.6768 639.25 65.5H635.25ZM706.75 106.25C718.948 106.25 729.291 102.219 736.592 95.0176C743.896 87.8134 748 77.5891 748 65.5H744C744 76.6609 740.229 85.8116 733.783 92.1699C727.334 98.5306 718.052 102.25 706.75 102.25V106.25ZM748 65.5C748 53.2995 743.967 43.07 736.686 35.8886C729.407 28.7099 719.059 24.75 706.75 24.75V28.75C718.191 28.75 727.468 32.4151 733.877 38.7364C740.283 45.055 744 54.2005 744 65.5H748ZM706.75 24.75C694.552 24.75 684.209 28.7806 676.908 35.9824C669.604 43.1866 665.5 53.4109 665.5 65.5H669.5C669.5 54.3391 673.271 45.1884 679.717 38.8301C686.166 32.4694 695.448 28.75 706.75 28.75V24.75ZM665.5 65.5C665.5 77.7005 669.533 87.93 676.814 95.1114C684.093 102.29 694.441 106.25 706.75 106.25V102.25C695.309 102.25 686.032 98.5849 679.623 92.2636C673.217 85.945 669.5 76.7995 669.5 65.5H665.5ZM706.75 85.75C701.511 85.75 697.409 83.8906 694.585 80.5775C691.728 77.2263 690 72.1737 690 65.5H686C686 72.8263 687.897 78.8987 691.54 83.1725C695.216 87.4844 700.489 89.75 706.75 89.75V85.75ZM690 65.5C690 58.8263 691.728 53.7737 694.585 50.4225C697.409 47.1094 701.511 45.25 706.75 45.25V41.25C700.489 41.25 695.216 43.5156 691.54 47.8275C687.897 52.1013 686 58.1737 686 65.5H690ZM706.75 45.25C711.989 45.25 716.091 47.1094 718.915 50.4225C721.772 53.7737 723.5 58.8263 723.5 65.5H727.5C727.5 58.1737 725.603 52.1013 721.96 47.8275C718.284 43.5156 713.011 41.25 706.75 41.25V45.25ZM723.5 65.5C723.5 72.1737 721.772 77.2263 718.915 80.5775C716.091 83.8906 711.989 85.75 706.75 85.75V89.75C713.011 89.75 718.284 87.4844 721.96 83.1725C725.603 78.8987 727.5 72.8263 727.5 65.5H723.5ZM773.25 49.75L771.254 49.6226L770.792 56.8549L774.898 50.8831L773.25 49.75ZM792.75 29.5L793.142 31.4612L793.146 31.4603L792.75 29.5ZM815 25L815.396 26.9603L815.43 26.9535L815.463 26.9456L815 25ZM832.75 6.25L834.731 6.52639L834.737 6.47886L834.742 6.43107L832.75 6.25ZM833 3.5L834.992 3.68107L835.159 1.84436L833.342 1.52938L833 3.5ZM814.25 0.25L814.592 -1.72062L812.76 -2.03801L812.31 -0.235071L814.25 0.25ZM813.5 3.25L811.56 2.76493L811.548 2.8111L811.539 2.85777L813.5 3.25ZM808.75 7.75L808.392 5.78226L808.351 5.78974L808.31 5.79893L808.75 7.75ZM791 11.75L791.425 13.7044L791.432 13.7027L791.44 13.7011L791 11.75ZM800.25 35C787.449 35 777.532 39.9914 771.602 48.6169L774.898 50.8831C779.968 43.5086 788.551 39 800.25 39V35ZM775.246 49.8774C775.605 44.2495 776.961 40.4018 779.581 37.6216C782.231 34.8091 786.443 32.801 793.142 31.4612L792.358 27.5388C785.307 28.949 780.144 31.1909 776.669 34.8784C773.164 38.5982 771.645 43.5005 771.254 49.6226L775.246 49.8774ZM793.146 31.4603L815.396 26.9603L814.604 23.0397L792.354 27.5397L793.146 31.4603ZM815.463 26.9456C820.944 25.6406 825.399 23.5026 828.686 20.1106C831.988 16.7031 833.938 12.2108 834.731 6.52639L830.769 5.97361C830.062 11.0392 828.387 14.6719 825.814 17.3269C823.226 19.9974 819.556 21.8594 814.537 23.0544L815.463 26.9456ZM834.742 6.43107L834.992 3.68107L831.008 3.31893L830.758 6.06893L834.742 6.43107ZM833.342 1.52938L814.592 -1.72062L813.908 2.22062L832.658 5.47062L833.342 1.52938ZM812.31 -0.235071L811.56 2.76493L815.44 3.73507L816.19 0.735071L812.31 -0.235071ZM811.539 2.85777C811.351 3.79826 811.009 4.3986 810.584 4.80723C810.153 5.22089 809.483 5.58388 808.392 5.78226L809.108 9.71774C810.767 9.41612 812.222 8.77911 813.354 7.69277C814.491 6.6014 815.149 5.20174 815.461 3.64223L811.539 2.85777ZM808.31 5.79893L790.56 9.79893L791.44 13.7011L809.19 9.70107L808.31 5.79893ZM790.575 9.79565C778.684 12.3807 769.701 17.8646 763.733 26.4524C757.795 34.9966 755 46.3846 755 60.5H759C759 46.8654 761.705 36.3784 767.017 28.7351C772.299 21.1354 780.316 16.1193 791.425 13.7044L790.575 9.79565ZM755 60.5C755 74.4548 758.649 85.9113 765.617 93.9077C772.616 101.94 782.764 106.25 795.25 106.25V102.25C783.736 102.25 774.759 98.3102 768.633 91.2798C762.476 84.2137 759 73.7952 759 60.5H755ZM795.25 106.25C806.922 106.25 816.928 102.549 824.038 96.0374C831.162 89.5133 835.25 80.2802 835.25 69.5H831.25C831.25 79.2198 827.588 87.3617 821.337 93.0876C815.072 98.8257 806.078 102.25 795.25 102.25V106.25ZM835.25 69.5C835.25 59.5127 831.693 50.8606 825.469 44.7032C819.246 38.5466 810.473 35 800.25 35V39C809.527 39 817.254 42.2034 822.656 47.5468C828.057 52.8894 831.25 60.4873 831.25 69.5H835.25ZM795.25 85.75C790.477 85.75 786.65 84.1137 784.011 81.3401C781.364 78.5577 779.75 74.4584 779.75 69.25H775.75C775.75 75.2916 777.636 80.4423 781.114 84.0974C784.6 87.7613 789.523 89.75 795.25 89.75V85.75ZM779.75 69.25C779.75 63.8891 781.317 59.8725 783.904 57.205C786.485 54.544 790.301 53 795.25 53V49C789.449 49 784.515 50.831 781.033 54.42C777.558 58.0025 775.75 63.1109 775.75 69.25H779.75ZM795.25 53C800.197 53 803.936 54.5414 806.449 57.214C808.978 59.9024 810.5 63.9834 810.5 69.5H814.5C814.5 63.2666 812.772 58.0976 809.363 54.4735C805.939 50.8336 801.053 49 795.25 49V53ZM810.5 69.5C810.5 74.7462 808.989 78.7734 806.449 81.4735C803.924 84.1584 800.177 85.75 795.25 85.75V89.75C801.073 89.75 805.951 87.8416 809.363 84.214C812.761 80.6016 814.5 75.5038 814.5 69.5H810.5ZM881 106.25C893.198 106.25 903.541 102.219 910.842 95.0176C918.146 87.8134 922.25 77.5891 922.25 65.5H918.25C918.25 76.6609 914.479 85.8116 908.033 92.1699C901.584 98.5306 892.302 102.25 881 102.25V106.25ZM922.25 65.5C922.25 53.2995 918.217 43.07 910.936 35.8886C903.657 28.7099 893.309 24.75 881 24.75V28.75C892.441 28.75 901.718 32.4151 908.127 38.7364C914.533 45.055 918.25 54.2005 918.25 65.5H922.25ZM881 24.75C868.802 24.75 858.459 28.7806 851.158 35.9824C843.854 43.1866 839.75 53.4109 839.75 65.5H843.75C843.75 54.3391 847.521 45.1884 853.967 38.8301C860.416 32.4694 869.698 28.75 881 28.75V24.75ZM839.75 65.5C839.75 77.7005 843.783 87.93 851.064 95.1114C858.343 102.29 868.691 106.25 881 106.25V102.25C869.559 102.25 860.282 98.5849 853.873 92.2636C847.467 85.945 843.75 76.7995 843.75 65.5H839.75ZM881 85.75C875.761 85.75 871.659 83.8906 868.835 80.5775C865.978 77.2263 864.25 72.1737 864.25 65.5H860.25C860.25 72.8263 862.147 78.8987 865.79 83.1725C869.466 87.4844 874.739 89.75 881 89.75V85.75ZM864.25 65.5C864.25 58.8263 865.978 53.7737 868.835 50.4225C871.659 47.1094 875.761 45.25 881 45.25V41.25C874.739 41.25 869.466 43.5156 865.79 47.8275C862.147 52.1013 860.25 58.1737 860.25 65.5H864.25ZM881 45.25C886.239 45.25 890.341 47.1094 893.165 50.4225C896.022 53.7737 897.75 58.8263 897.75 65.5H901.75C901.75 58.1737 899.853 52.1013 896.21 47.8275C892.534 43.5156 887.261 41.25 881 41.25V45.25ZM897.75 65.5C897.75 72.1737 896.022 77.2263 893.165 80.5775C890.341 83.8906 886.239 85.75 881 85.75V89.75C887.261 89.75 892.534 87.4844 896.21 83.1725C899.853 78.8987 901.75 72.8263 901.75 65.5H897.75ZM976 28V26H974V28H976ZM976 59V61H978V59H976ZM948.5 28H950.5V26H948.5V28ZM928.5 28V26H926.5V28H928.5ZM976 77H978V75H976V77ZM976 103H974V105H976V103ZM996 103V105H998V103H996ZM996 28H998V26H996V28ZM974 28V59H978V28H974ZM976 57H961.25V61H976V57ZM961.25 57C956.577 57 954.004 56.2973 952.574 55.1353C951.267 54.0734 950.5 52.266 950.5 48.75H946.5C946.5 52.734 947.358 56.0516 950.051 58.2397C952.621 60.3277 956.423 61 961.25 61V57ZM950.5 48.75V28H946.5V48.75H950.5ZM948.5 26H928.5V30H948.5V26ZM926.5 28V48.75H930.5V28H926.5ZM926.5 48.75C926.5 57.996 929.755 65.6422 935.878 70.9489C941.965 76.2248 950.668 79 961.25 79V75C951.332 75 943.66 72.4002 938.497 67.9261C933.37 63.4828 930.5 57.004 930.5 48.75H926.5ZM961.25 79H976V75H961.25V79ZM974 77V103H978V77H974ZM976 105H996V101H976V105ZM998 103V28H994V103H998ZM996 26H976V30H996V26ZM1066.75 28V26H1065.68L1065.08 26.8927L1066.75 28ZM1036 74.25H1034V80.8704L1037.67 75.3573L1036 74.25ZM1036 28H1038V26H1036V28ZM1016.5 28V26H1014.5V28H1016.5ZM1016.5 103H1014.5V105H1016.5V103ZM1036.25 103V105H1037.32L1037.92 104.107L1036.25 103ZM1067 56.75H1069V50.1296L1065.33 55.6427L1067 56.75ZM1067 103H1065V105H1067V103ZM1086.5 103V105H1088.5V103H1086.5ZM1086.5 28H1088.5V26H1086.5V28ZM1065.08 26.8927L1034.33 73.1427L1037.67 75.3573L1068.42 29.1073L1065.08 26.8927ZM1038 74.25V28H1034V74.25H1038ZM1036 26H1016.5V30H1036V26ZM1014.5 28V103H1018.5V28H1014.5ZM1016.5 105H1036.25V101H1016.5V105ZM1037.92 104.107L1068.67 57.8573L1065.33 55.6427L1034.58 101.893L1037.92 104.107ZM1065 56.75V103H1069V56.75H1065ZM1067 105H1086.5V101H1067V105ZM1088.5 103V28H1084.5V103H1088.5ZM1086.5 26H1066.75V30H1086.5V26ZM1167.25 2.25L1169.24 2.46157L1169.45 0.520775L1167.51 0.266981L1167.25 2.25ZM1152 0.25L1152.26 -1.73302L1150.37 -1.98053L1150.03 -0.107771L1152 0.25ZM1132 0.25L1133.97 -0.107771L1133.63 -1.98053L1131.74 -1.73302L1132 0.25ZM1116.75 2.25L1116.49 0.266981L1114.55 0.520775L1114.76 2.46157L1116.75 2.25ZM1157.25 28V26H1156.18L1155.58 26.8927L1157.25 28ZM1126.5 74.25H1124.5V80.8704L1128.17 75.3573L1126.5 74.25ZM1126.5 28H1128.5V26H1126.5V28ZM1107 28V26H1105V28H1107ZM1107 103H1105V105H1107V103ZM1126.75 103V105H1127.82L1128.42 104.107L1126.75 103ZM1157.5 56.75H1159.5V50.1296L1155.83 55.6427L1157.5 56.75ZM1157.5 103H1155.5V105H1157.5V103ZM1177 103V105H1179V103H1177ZM1177 28H1179V26H1177V28ZM1142 23C1149.56 23 1156.01 21.1771 1160.78 17.6382C1165.6 14.0709 1168.56 8.86652 1169.24 2.46157L1165.26 2.03843C1164.69 7.38348 1162.28 11.5541 1158.4 14.4243C1154.49 17.3229 1148.94 19 1142 19V23ZM1167.51 0.266981L1152.26 -1.73302L1151.74 2.23302L1166.99 4.23302L1167.51 0.266981ZM1150.03 -0.107771C1149.61 2.21884 1148.59 3.82598 1147.26 4.86486C1145.93 5.91541 1144.14 6.5 1142 6.5V10.5C1144.86 10.5 1147.57 9.70959 1149.74 8.01014C1151.91 6.29902 1153.39 3.78116 1153.97 0.607771L1150.03 -0.107771ZM1142 6.5C1139.86 6.5 1138.07 5.91541 1136.74 4.86486C1135.41 3.82598 1134.39 2.21884 1133.97 -0.107771L1130.03 0.607771C1130.61 3.78116 1132.09 6.29902 1134.26 8.01014C1136.43 9.70959 1139.14 10.5 1142 10.5V6.5ZM1131.74 -1.73302L1116.49 0.266981L1117.01 4.23302L1132.26 2.23302L1131.74 -1.73302ZM1114.76 2.46157C1115.44 8.86652 1118.4 14.0709 1123.22 17.6382C1127.99 21.1771 1134.44 23 1142 23V19C1135.06 19 1129.51 17.3229 1125.6 14.4243C1121.72 11.5541 1119.31 7.38348 1118.74 2.03843L1114.76 2.46157ZM1155.58 26.8927L1124.83 73.1427L1128.17 75.3573L1158.92 29.1073L1155.58 26.8927ZM1128.5 74.25V28H1124.5V74.25H1128.5ZM1126.5 26H1107V30H1126.5V26ZM1105 28V103H1109V28H1105ZM1107 105H1126.75V101H1107V105ZM1128.42 104.107L1159.17 57.8573L1155.83 55.6427L1125.08 101.893L1128.42 104.107ZM1155.5 56.75V103H1159.5V56.75H1155.5ZM1157.5 105H1177V101H1157.5V105ZM1179 103V28H1175V103H1179ZM1177 26H1157.25V30H1177V26ZM1307 28H1309V26H1307V28ZM1237.5 28V26H1235.5V28H1237.5ZM1237.5 103H1235.5V105H1237.5V103ZM1257.5 103V105H1259.5V103H1257.5ZM1257.5 46V44H1255.5V46H1257.5ZM1287 46H1289V44H1287V46ZM1287 103H1285V105H1287V103ZM1307 103V105H1309V103H1307ZM1307 26H1237.5V30H1307V26ZM1235.5 28V103H1239.5V28H1235.5ZM1237.5 105H1257.5V101H1237.5V105ZM1259.5 103V46H1255.5V103H1259.5ZM1257.5 48H1287V44H1257.5V48ZM1285 46V103H1289V46H1285ZM1287 105H1307V101H1287V105ZM1309 103V28H1305V103H1309ZM1346.5 38.5L1344.51 38.6896L1344.99 43.7549L1348.09 39.7169L1346.5 38.5ZM1345.5 28L1347.49 27.8104L1347.32 26H1345.5V28ZM1327.5 28V26H1325.5V28H1327.5ZM1327.5 128H1325.5V130H1327.5V128ZM1347.5 128V130H1349.5V128H1347.5ZM1347.5 94.25L1348.97 92.8959L1345.5 89.1221V94.25H1347.5ZM1370.75 24.75C1359.88 24.75 1351.04 29.2874 1344.91 37.2831L1348.09 39.7169C1353.46 32.7126 1361.12 28.75 1370.75 28.75V24.75ZM1348.49 38.3104L1347.49 27.8104L1343.51 28.1896L1344.51 38.6896L1348.49 38.3104ZM1345.5 26H1327.5V30H1345.5V26ZM1325.5 28V128H1329.5V28H1325.5ZM1327.5 130H1347.5V126H1327.5V130ZM1349.5 128V94.25H1345.5V128H1349.5ZM1346.03 95.6041C1352.15 102.257 1360.43 106.25 1370.75 106.25V102.25C1361.57 102.25 1354.35 98.7428 1348.97 92.8959L1346.03 95.6041ZM1370.75 106.25C1380.84 106.25 1389.4 102.115 1395.41 94.8706C1401.4 87.6565 1404.75 77.4852 1404.75 65.5H1400.75C1400.75 76.7648 1397.6 85.9685 1392.34 92.3169C1387.1 98.6347 1379.66 102.25 1370.75 102.25V106.25ZM1404.75 65.5C1404.75 53.4128 1401.54 43.2358 1395.61 36.0406C1389.64 28.8062 1381.07 24.75 1370.75 24.75V28.75C1379.93 28.75 1387.36 32.3188 1392.52 38.5844C1397.71 44.8892 1400.75 54.0872 1400.75 65.5H1404.75ZM1364.5 85.75C1359.43 85.75 1355.59 83.8623 1352.98 80.5428C1350.31 77.162 1348.75 72.0895 1348.75 65.5H1344.75C1344.75 72.6605 1346.44 78.713 1349.84 83.0197C1353.28 87.3877 1358.32 89.75 1364.5 89.75V85.75ZM1348.75 65.5C1348.75 58.9105 1350.31 53.838 1352.98 50.4572C1355.59 47.1377 1359.43 45.25 1364.5 45.25V41.25C1358.32 41.25 1353.28 43.6123 1349.84 47.9803C1346.44 52.287 1344.75 58.3395 1344.75 65.5H1348.75ZM1364.5 45.25C1369.57 45.25 1373.48 47.1415 1376.16 50.4728C1378.88 53.8571 1380.5 58.9268 1380.5 65.5H1384.5C1384.5 58.3232 1382.74 52.2679 1379.28 47.9647C1375.77 43.6085 1370.68 41.25 1364.5 41.25V45.25ZM1380.5 65.5C1380.5 72.0732 1378.88 77.1429 1376.16 80.5272C1373.48 83.8585 1369.57 85.75 1364.5 85.75V89.75C1370.68 89.75 1375.77 87.3915 1379.28 83.0353C1382.74 78.7321 1384.5 72.6768 1384.5 65.5H1380.5ZM1452 106.25C1464.2 106.25 1474.54 102.219 1481.84 95.0176C1489.15 87.8134 1493.25 77.5891 1493.25 65.5H1489.25C1489.25 76.6609 1485.48 85.8116 1479.03 92.1699C1472.58 98.5306 1463.3 102.25 1452 102.25V106.25ZM1493.25 65.5C1493.25 53.2995 1489.22 43.07 1481.94 35.8886C1474.66 28.7099 1464.31 24.75 1452 24.75V28.75C1463.44 28.75 1472.72 32.4151 1479.13 38.7364C1485.53 45.055 1489.25 54.2005 1489.25 65.5H1493.25ZM1452 24.75C1439.8 24.75 1429.46 28.7806 1422.16 35.9824C1414.85 43.1866 1410.75 53.4109 1410.75 65.5H1414.75C1414.75 54.3391 1418.52 45.1884 1424.97 38.8301C1431.42 32.4694 1440.7 28.75 1452 28.75V24.75ZM1410.75 65.5C1410.75 77.7005 1414.78 87.93 1422.06 95.1114C1429.34 102.29 1439.69 106.25 1452 106.25V102.25C1440.56 102.25 1431.28 98.5849 1424.87 92.2636C1418.47 85.945 1414.75 76.7995 1414.75 65.5H1410.75ZM1452 85.75C1446.76 85.75 1442.66 83.8906 1439.83 80.5775C1436.98 77.2263 1435.25 72.1737 1435.25 65.5H1431.25C1431.25 72.8263 1433.15 78.8987 1436.79 83.1725C1440.47 87.4844 1445.74 89.75 1452 89.75V85.75ZM1435.25 65.5C1435.25 58.8263 1436.98 53.7737 1439.83 50.4225C1442.66 47.1094 1446.76 45.25 1452 45.25V41.25C1445.74 41.25 1440.47 43.5156 1436.79 47.8275C1433.15 52.1013 1431.25 58.1737 1431.25 65.5H1435.25ZM1452 45.25C1457.24 45.25 1461.34 47.1094 1464.17 50.4225C1467.02 53.7737 1468.75 58.8263 1468.75 65.5H1472.75C1472.75 58.1737 1470.85 52.1013 1467.21 47.8275C1463.53 43.5156 1458.26 41.25 1452 41.25V45.25ZM1468.75 65.5C1468.75 72.1737 1467.02 77.2263 1464.17 80.5775C1461.34 83.8906 1457.24 85.75 1452 85.75V89.75C1458.26 89.75 1463.53 87.4844 1467.21 83.1725C1470.85 78.8987 1472.75 72.8263 1472.75 65.5H1468.75ZM1574.75 81.75L1576.67 82.3216L1577.24 80.4127L1575.33 79.8357L1574.75 81.75ZM1555.75 76L1556.33 74.0857L1554.52 73.5389L1553.87 75.3115L1555.75 76ZM1555.75 55L1553.87 55.6885L1554.52 57.4611L1556.33 56.9143L1555.75 55ZM1574.75 49.25L1575.33 51.1643L1577.24 50.5873L1576.67 48.6784L1574.75 49.25ZM1540 106.25C1557.89 106.25 1572.1 97.6336 1576.67 82.3216L1572.83 81.1784C1568.9 94.3664 1556.61 102.25 1540 102.25V106.25ZM1575.33 79.8357L1556.33 74.0857L1555.17 77.9143L1574.17 83.6643L1575.33 79.8357ZM1553.87 75.3115C1552.6 78.7717 1550.75 81.3591 1548.43 83.083C1546.13 84.7989 1543.24 85.75 1539.75 85.75V89.75C1544.01 89.75 1547.75 88.5761 1550.82 86.292C1553.88 84.0159 1556.15 80.7283 1557.63 76.6885L1553.87 75.3115ZM1539.75 85.75C1534.81 85.75 1530.9 83.8655 1528.18 80.5196C1525.42 77.1284 1523.75 72.0567 1523.75 65.5H1519.75C1519.75 72.6933 1521.58 78.7466 1525.07 83.0429C1528.6 87.3845 1533.69 89.75 1539.75 89.75V85.75ZM1523.75 65.5C1523.75 58.9433 1525.42 53.8716 1528.18 50.4804C1530.9 47.1345 1534.81 45.25 1539.75 45.25V41.25C1533.69 41.25 1528.6 43.6155 1525.07 47.9571C1521.58 52.2534 1519.75 58.3067 1519.75 65.5H1523.75ZM1539.75 45.25C1543.24 45.25 1546.13 46.2011 1548.43 47.917C1550.75 49.6409 1552.6 52.2283 1553.87 55.6885L1557.63 54.3115C1556.15 50.2717 1553.88 46.9841 1550.82 44.708C1547.75 42.4239 1544.01 41.25 1539.75 41.25V45.25ZM1556.33 56.9143L1575.33 51.1643L1574.17 47.3357L1555.17 53.0857L1556.33 56.9143ZM1576.67 48.6784C1572.1 33.3664 1557.89 24.75 1540 24.75V28.75C1556.61 28.75 1568.9 36.6336 1572.83 49.8216L1576.67 48.6784ZM1540 24.75C1527.92 24.75 1517.7 28.7852 1510.49 35.992C1503.29 43.1988 1499.25 53.4205 1499.25 65.5H1503.25C1503.25 54.3295 1506.96 45.1762 1513.32 38.8205C1519.68 32.4648 1528.83 28.75 1540 28.75V24.75ZM1499.25 65.5C1499.25 77.5795 1503.29 87.8012 1510.49 95.008C1517.7 102.215 1527.92 106.25 1540 106.25V102.25C1528.83 102.25 1519.68 98.5352 1513.32 92.1795C1506.96 85.8238 1503.25 76.6705 1503.25 65.5H1499.25ZM1650.5 28H1652.5V26H1650.5V28ZM1578.5 28V26H1576.5V28H1578.5ZM1578.5 46H1576.5V48H1578.5V46ZM1604.5 46H1606.5V44H1604.5V46ZM1604.5 103H1602.5V105H1604.5V103ZM1624.5 103V105H1626.5V103H1624.5ZM1624.5 46V44H1622.5V46H1624.5ZM1650.5 46V48H1652.5V46H1650.5ZM1650.5 26H1578.5V30H1650.5V26ZM1576.5 28V46H1580.5V28H1576.5ZM1578.5 48H1604.5V44H1578.5V48ZM1602.5 46V103H1606.5V46H1602.5ZM1604.5 105H1624.5V101H1604.5V105ZM1626.5 103V46H1622.5V103H1626.5ZM1624.5 48H1650.5V44H1624.5V48ZM1652.5 46V28H1648.5V46H1652.5ZM1663.75 18.5H1661.75V20.5H1663.75V18.5ZM1685.25 18.5V20.5H1687.25V18.5H1685.25ZM1685.25 1.5H1687.25V-0.5H1685.25V1.5ZM1663.75 1.5V-0.5H1661.75V1.5H1663.75ZM1664.5 103H1662.5V105H1664.5V103ZM1684.5 103V105H1686.5V103H1684.5ZM1684.5 28H1686.5V26H1684.5V28ZM1664.5 28V26H1662.5V28H1664.5ZM1663.75 20.5H1685.25V16.5H1663.75V20.5ZM1687.25 18.5V1.5H1683.25V18.5H1687.25ZM1685.25 -0.5H1663.75V3.5H1685.25V-0.5ZM1661.75 1.5V18.5H1665.75V1.5H1661.75ZM1664.5 105H1684.5V101H1664.5V105ZM1686.5 103V28H1682.5V103H1686.5ZM1684.5 26H1664.5V30H1684.5V26ZM1662.5 28V103H1666.5V28H1662.5ZM1725.25 38.5L1723.26 38.6896L1723.74 43.7549L1726.84 39.7169L1725.25 38.5ZM1724.25 28L1726.24 27.8104L1726.07 26H1724.25V28ZM1706.25 28V26H1704.25V28H1706.25ZM1706.25 128H1704.25V130H1706.25V128ZM1726.25 128V130H1728.25V128H1726.25ZM1726.25 94.25L1727.72 92.8959L1724.25 89.1221V94.25H1726.25ZM1749.5 24.75C1738.63 24.75 1729.79 29.2874 1723.66 37.2831L1726.84 39.7169C1732.21 32.7126 1739.87 28.75 1749.5 28.75V24.75ZM1727.24 38.3104L1726.24 27.8104L1722.26 28.1896L1723.26 38.6896L1727.24 38.3104ZM1724.25 26H1706.25V30H1724.25V26ZM1704.25 28V128H1708.25V28H1704.25ZM1706.25 130H1726.25V126H1706.25V130ZM1728.25 128V94.25H1724.25V128H1728.25ZM1724.78 95.6041C1730.9 102.257 1739.18 106.25 1749.5 106.25V102.25C1740.32 102.25 1733.1 98.7428 1727.72 92.8959L1724.78 95.6041ZM1749.5 106.25C1759.59 106.25 1768.15 102.115 1774.16 94.8706C1780.15 87.6565 1783.5 77.4852 1783.5 65.5H1779.5C1779.5 76.7648 1776.35 85.9685 1771.09 92.3169C1765.85 98.6347 1758.41 102.25 1749.5 102.25V106.25ZM1783.5 65.5C1783.5 53.4128 1780.29 43.2358 1774.36 36.0406C1768.39 28.8062 1759.82 24.75 1749.5 24.75V28.75C1758.68 28.75 1766.11 32.3188 1771.27 38.5844C1776.46 44.8892 1779.5 54.0872 1779.5 65.5H1783.5ZM1743.25 85.75C1738.18 85.75 1734.34 83.8623 1731.73 80.5428C1729.06 77.162 1727.5 72.0895 1727.5 65.5H1723.5C1723.5 72.6605 1725.19 78.713 1728.59 83.0197C1732.03 87.3877 1737.07 89.75 1743.25 89.75V85.75ZM1727.5 65.5C1727.5 58.9105 1729.06 53.838 1731.73 50.4572C1734.34 47.1377 1738.18 45.25 1743.25 45.25V41.25C1737.07 41.25 1732.03 43.6123 1728.59 47.9803C1725.19 52.287 1723.5 58.3395 1723.5 65.5H1727.5ZM1743.25 45.25C1748.32 45.25 1752.23 47.1415 1754.91 50.4728C1757.63 53.8571 1759.25 58.9268 1759.25 65.5H1763.25C1763.25 58.3232 1761.49 52.2679 1758.03 47.9647C1754.52 43.6085 1749.43 41.25 1743.25 41.25V45.25ZM1759.25 65.5C1759.25 72.0732 1757.63 77.1429 1754.91 80.5272C1752.23 83.8585 1748.32 85.75 1743.25 85.75V89.75C1749.43 89.75 1754.52 87.3915 1758.03 83.0353C1761.49 78.7321 1763.25 72.6768 1763.25 65.5H1759.25ZM1875.25 69.75H1873.25V71.75H1875.25V69.75ZM1920.75 69.75V71.75H1922.75V69.75H1920.75ZM1920.75 51.25H1922.75V49.25H1920.75V51.25ZM1875.25 51.25V49.25H1873.25V51.25H1875.25ZM1875.25 71.75H1920.75V67.75H1875.25V71.75ZM1922.75 69.75V51.25H1918.75V69.75H1922.75ZM1920.75 49.25H1875.25V53.25H1920.75V49.25ZM1873.25 51.25V69.75H1877.25V51.25H1873.25ZM2034.75 71.75V69.75H2032.32L2032.79 72.133L2034.75 71.75ZM2061.5 71.75V73.75H2063.5V71.75H2061.5ZM2061.5 57.75H2063.5V55.75H2061.5V57.75ZM2035 57.75L2033.06 57.2773L2032.46 59.75H2035V57.75ZM2070.25 54.5L2068.4 55.2647L2069.13 57.03L2070.93 56.3811L2070.25 54.5ZM2088.25 48L2088.93 49.8811L2090.81 49.2034L2090.13 47.3251L2088.25 48ZM2088.25 83L2090.13 83.6749L2090.81 81.7966L2088.93 81.1189L2088.25 83ZM2070.25 76.5L2070.93 74.6189L2069.13 73.97L2068.4 75.7353L2070.25 76.5ZM2053 86.25C2048.58 86.25 2045.01 84.8445 2042.32 82.3713C2039.61 79.8792 2037.65 76.1745 2036.71 71.367L2032.79 72.133C2033.85 77.5755 2036.14 82.1208 2039.62 85.3162C2043.11 88.5305 2047.67 90.25 2053 90.25V86.25ZM2034.75 73.75H2061.5V69.75H2034.75V73.75ZM2063.5 71.75V57.75H2059.5V71.75H2063.5ZM2061.5 55.75H2035V59.75H2061.5V55.75ZM2036.94 58.2227C2037.99 53.9338 2039.98 50.5817 2042.67 48.3074C2045.34 46.0438 2048.81 44.75 2053 44.75V40.75C2047.94 40.75 2043.53 42.3312 2040.08 45.2551C2036.64 48.1683 2034.26 52.3162 2033.06 57.2773L2036.94 58.2227ZM2053 44.75C2060.38 44.75 2065.69 48.6999 2068.4 55.2647L2072.1 53.7353C2068.81 45.8001 2062.12 40.75 2053 40.75V44.75ZM2070.93 56.3811L2088.93 49.8811L2087.57 46.1189L2069.57 52.6189L2070.93 56.3811ZM2090.13 47.3251C2085.03 33.0809 2070.86 24.75 2053.25 24.75V28.75C2069.64 28.75 2081.97 36.4191 2086.37 48.6749L2090.13 47.3251ZM2053.25 24.75C2041.17 24.75 2030.95 28.7852 2023.74 35.992C2016.54 43.1988 2012.5 53.4205 2012.5 65.5H2016.5C2016.5 54.3295 2020.21 45.1762 2026.57 38.8205C2032.93 32.4648 2042.08 28.75 2053.25 28.75V24.75ZM2012.5 65.5C2012.5 77.5795 2016.54 87.8012 2023.74 95.008C2030.95 102.215 2041.17 106.25 2053.25 106.25V102.25C2042.08 102.25 2032.93 98.5352 2026.57 92.1795C2020.21 85.8238 2016.5 76.6705 2016.5 65.5H2012.5ZM2053.25 106.25C2070.86 106.25 2085.03 97.9191 2090.13 83.6749L2086.37 82.3251C2081.97 94.5809 2069.64 102.25 2053.25 102.25V106.25ZM2088.93 81.1189L2070.93 74.6189L2069.57 78.3811L2087.57 84.8811L2088.93 81.1189ZM2068.4 75.7353C2065.69 82.3001 2060.38 86.25 2053 86.25V90.25C2062.12 90.25 2068.81 85.1999 2072.1 77.2647L2068.4 75.7353ZM2170.75 85H2168.75V87H2170.75V85ZM2170.75 28H2172.75V26H2170.75V28ZM2105.25 28V26H2103.25V28H2105.25ZM2103.75 85V87H2105.43L2105.72 85.3427L2103.75 85ZM2094.5 85V83H2092.5V85H2094.5ZM2094.5 120.5H2092.5V122.5H2094.5V120.5ZM2113.75 120.5V122.5H2115.75V120.5H2113.75ZM2113.75 103V101H2111.75V103H2113.75ZM2161.5 103H2163.5V101H2161.5V103ZM2161.5 120.5H2159.5V122.5H2161.5V120.5ZM2180.75 120.5V122.5H2182.75V120.5H2180.75ZM2180.75 85H2182.75V83H2180.75V85ZM2123.25 85.5L2121.27 85.2172L2120.94 87.5H2123.25V85.5ZM2124.75 45.5V43.5H2122.75V45.5H2124.75ZM2151 45.5H2153V43.5H2151V45.5ZM2151 85.5V87.5H2153V85.5H2151ZM2172.75 85V28H2168.75V85H2172.75ZM2170.75 26H2105.25V30H2170.75V26ZM2103.25 28V59.25H2107.25V28H2103.25ZM2103.25 59.25C2103.25 70.9699 2102.75 79.0812 2101.78 84.6573L2105.72 85.3427C2106.75 79.4188 2107.25 71.0301 2107.25 59.25H2103.25ZM2103.75 83H2094.5V87H2103.75V83ZM2092.5 85V120.5H2096.5V85H2092.5ZM2094.5 122.5H2113.75V118.5H2094.5V122.5ZM2115.75 120.5V103H2111.75V120.5H2115.75ZM2113.75 105H2161.5V101H2113.75V105ZM2159.5 103V120.5H2163.5V103H2159.5ZM2161.5 122.5H2180.75V118.5H2161.5V122.5ZM2182.75 120.5V85H2178.75V120.5H2182.75ZM2180.75 83H2170.75V87H2180.75V83ZM2125.23 85.7828C2126.25 78.6587 2126.75 69.8079 2126.75 60H2122.75C2122.75 69.6921 2122.25 78.3413 2121.27 85.2172L2125.23 85.7828ZM2126.75 60V45.5H2122.75V60H2126.75ZM2124.75 47.5H2151V43.5H2124.75V47.5ZM2149 45.5V85.5H2153V45.5H2149ZM2151 83.5H2123.25V87.5H2151V83.5ZM2245.5 28V26H2244.43L2243.83 26.8927L2245.5 28ZM2214.75 74.25H2212.75V80.8704L2216.42 75.3573L2214.75 74.25ZM2214.75 28H2216.75V26H2214.75V28ZM2195.25 28V26H2193.25V28H2195.25ZM2195.25 103H2193.25V105H2195.25V103ZM2215 103V105H2216.07L2216.67 104.107L2215 103ZM2245.75 56.75H2247.75V50.1296L2244.08 55.6427L2245.75 56.75ZM2245.75 103H2243.75V105H2245.75V103ZM2265.25 103V105H2267.25V103H2265.25ZM2265.25 28H2267.25V26H2265.25V28ZM2243.83 26.8927L2213.08 73.1427L2216.42 75.3573L2247.17 29.1073L2243.83 26.8927ZM2216.75 74.25V28H2212.75V74.25H2216.75ZM2214.75 26H2195.25V30H2214.75V26ZM2193.25 28V103H2197.25V28H2193.25ZM2195.25 105H2215V101H2195.25V105ZM2216.67 104.107L2247.42 57.8573L2244.08 55.6427L2213.33 101.893L2216.67 104.107ZM2243.75 56.75V103H2247.75V56.75H2243.75ZM2245.75 105H2265.25V101H2245.75V105ZM2267.25 103V28H2263.25V103H2267.25ZM2265.25 26H2245.5V30H2265.25V26ZM2335.25 28V26H2333.25V28H2335.25ZM2335.25 55.75V57.75H2337.25V55.75H2335.25ZM2305.75 55.75H2303.75V57.75H2305.75V55.75ZM2305.75 28H2307.75V26H2305.75V28ZM2285.75 28V26H2283.75V28H2285.75ZM2285.75 103H2283.75V105H2285.75V103ZM2305.75 103V105H2307.75V103H2305.75ZM2305.75 73.75V71.75H2303.75V73.75H2305.75ZM2335.25 73.75H2337.25V71.75H2335.25V73.75ZM2335.25 103H2333.25V105H2335.25V103ZM2355.25 103V105H2357.25V103H2355.25ZM2355.25 28H2357.25V26H2355.25V28ZM2333.25 28V55.75H2337.25V28H2333.25ZM2335.25 53.75H2305.75V57.75H2335.25V53.75ZM2307.75 55.75V28H2303.75V55.75H2307.75ZM2305.75 26H2285.75V30H2305.75V26ZM2283.75 28V103H2287.75V28H2283.75ZM2285.75 105H2305.75V101H2285.75V105ZM2307.75 103V73.75H2303.75V103H2307.75ZM2305.75 75.75H2335.25V71.75H2305.75V75.75ZM2333.25 73.75V103H2337.25V73.75H2333.25ZM2335.25 105H2355.25V101H2335.25V105ZM2357.25 103V28H2353.25V103H2357.25ZM2355.25 26H2335.25V30H2355.25V26ZM2426 28V26H2424.93L2424.33 26.8927L2426 28ZM2395.25 74.25H2393.25V80.8704L2396.92 75.3573L2395.25 74.25ZM2395.25 28H2397.25V26H2395.25V28ZM2375.75 28V26H2373.75V28H2375.75ZM2375.75 103H2373.75V105H2375.75V103ZM2395.5 103V105H2396.57L2397.17 104.107L2395.5 103ZM2426.25 56.75H2428.25V50.1296L2424.58 55.6427L2426.25 56.75ZM2426.25 103H2424.25V105H2426.25V103ZM2445.75 103V105H2447.75V103H2445.75ZM2445.75 28H2447.75V26H2445.75V28ZM2424.33 26.8927L2393.58 73.1427L2396.92 75.3573L2427.67 29.1073L2424.33 26.8927ZM2397.25 74.25V28H2393.25V74.25H2397.25ZM2395.25 26H2375.75V30H2395.25V26ZM2373.75 28V103H2377.75V28H2373.75ZM2375.75 105H2395.5V101H2375.75V105ZM2397.17 104.107L2427.92 57.8573L2424.58 55.6427L2393.83 101.893L2397.17 104.107ZM2424.25 56.75V103H2428.25V56.75H2424.25ZM2426.25 105H2445.75V101H2426.25V105ZM2447.75 103V28H2443.75V103H2447.75ZM2445.75 26H2426V30H2445.75V26ZM2526.5 2.25L2528.49 2.46157L2528.7 0.520775L2526.76 0.266981L2526.5 2.25ZM2511.25 0.25L2511.51 -1.73302L2509.62 -1.98053L2509.28 -0.107771L2511.25 0.25ZM2491.25 0.25L2493.22 -0.107771L2492.88 -1.98053L2490.99 -1.73302L2491.25 0.25ZM2476 2.25L2475.74 0.266981L2473.8 0.520775L2474.01 2.46157L2476 2.25ZM2516.5 28V26H2515.43L2514.83 26.8927L2516.5 28ZM2485.75 74.25H2483.75V80.8704L2487.42 75.3573L2485.75 74.25ZM2485.75 28H2487.75V26H2485.75V28ZM2466.25 28V26H2464.25V28H2466.25ZM2466.25 103H2464.25V105H2466.25V103ZM2486 103V105H2487.07L2487.67 104.107L2486 103ZM2516.75 56.75H2518.75V50.1296L2515.08 55.6427L2516.75 56.75ZM2516.75 103H2514.75V105H2516.75V103ZM2536.25 103V105H2538.25V103H2536.25ZM2536.25 28H2538.25V26H2536.25V28ZM2501.25 23C2508.81 23 2515.26 21.1771 2520.03 17.6382C2524.85 14.0709 2527.81 8.86652 2528.49 2.46157L2524.51 2.03843C2523.94 7.38348 2521.53 11.5541 2517.65 14.4243C2513.74 17.3229 2508.19 19 2501.25 19V23ZM2526.76 0.266981L2511.51 -1.73302L2510.99 2.23302L2526.24 4.23302L2526.76 0.266981ZM2509.28 -0.107771C2508.86 2.21884 2507.84 3.82598 2506.51 4.86486C2505.18 5.91541 2503.39 6.5 2501.25 6.5V10.5C2504.11 10.5 2506.82 9.70959 2508.99 8.01014C2511.16 6.29902 2512.64 3.78116 2513.22 0.607771L2509.28 -0.107771ZM2501.25 6.5C2499.11 6.5 2497.32 5.91541 2495.99 4.86486C2494.66 3.82598 2493.64 2.21884 2493.22 -0.107771L2489.28 0.607771C2489.86 3.78116 2491.34 6.29902 2493.51 8.01014C2495.68 9.70959 2498.39 10.5 2501.25 10.5V6.5ZM2490.99 -1.73302L2475.74 0.266981L2476.26 4.23302L2491.51 2.23302L2490.99 -1.73302ZM2474.01 2.46157C2474.69 8.86652 2477.65 14.0709 2482.47 17.6382C2487.24 21.1771 2493.69 23 2501.25 23V19C2494.31 19 2488.76 17.3229 2484.85 14.4243C2480.97 11.5541 2478.56 7.38348 2477.99 2.03843L2474.01 2.46157ZM2514.83 26.8927L2484.08 73.1427L2487.42 75.3573L2518.17 29.1073L2514.83 26.8927ZM2487.75 74.25V28H2483.75V74.25H2487.75ZM2485.75 26H2466.25V30H2485.75V26ZM2464.25 28V103H2468.25V28H2464.25ZM2466.25 105H2486V101H2466.25V105ZM2487.67 104.107L2518.42 57.8573L2515.08 55.6427L2484.33 101.893L2487.67 104.107ZM2514.75 56.75V103H2518.75V56.75H2514.75ZM2516.75 105H2536.25V101H2516.75V105ZM2538.25 103V28H2534.25V103H2538.25ZM2536.25 26H2516.5V30H2536.25V26ZM2615.75 38.5L2613.76 38.6896L2614.24 43.7549L2617.34 39.7169L2615.75 38.5ZM2614.75 28L2616.74 27.8104L2616.57 26H2614.75V28ZM2596.75 28V26H2594.75V28H2596.75ZM2596.75 128H2594.75V130H2596.75V128ZM2616.75 128V130H2618.75V128H2616.75ZM2616.75 94.25L2618.22 92.8959L2614.75 89.1221V94.25H2616.75ZM2640 24.75C2629.13 24.75 2620.29 29.2874 2614.16 37.2831L2617.34 39.7169C2622.71 32.7126 2630.37 28.75 2640 28.75V24.75ZM2617.74 38.3104L2616.74 27.8104L2612.76 28.1896L2613.76 38.6896L2617.74 38.3104ZM2614.75 26H2596.75V30H2614.75V26ZM2594.75 28V128H2598.75V28H2594.75ZM2596.75 130H2616.75V126H2596.75V130ZM2618.75 128V94.25H2614.75V128H2618.75ZM2615.28 95.6041C2621.4 102.257 2629.68 106.25 2640 106.25V102.25C2630.82 102.25 2623.6 98.7428 2618.22 92.8959L2615.28 95.6041ZM2640 106.25C2650.09 106.25 2658.65 102.115 2664.66 94.8706C2670.65 87.6565 2674 77.4852 2674 65.5H2670C2670 76.7648 2666.85 85.9685 2661.59 92.3169C2656.35 98.6347 2648.91 102.25 2640 102.25V106.25ZM2674 65.5C2674 53.4128 2670.79 43.2358 2664.86 36.0406C2658.89 28.8062 2650.32 24.75 2640 24.75V28.75C2649.18 28.75 2656.61 32.3188 2661.77 38.5844C2666.96 44.8892 2670 54.0872 2670 65.5H2674ZM2633.75 85.75C2628.68 85.75 2624.84 83.8623 2622.23 80.5428C2619.56 77.162 2618 72.0895 2618 65.5H2614C2614 72.6605 2615.69 78.713 2619.09 83.0197C2622.53 87.3877 2627.57 89.75 2633.75 89.75V85.75ZM2618 65.5C2618 58.9105 2619.56 53.838 2622.23 50.4572C2624.84 47.1377 2628.68 45.25 2633.75 45.25V41.25C2627.57 41.25 2622.53 43.6123 2619.09 47.9803C2615.69 52.287 2614 58.3395 2614 65.5H2618ZM2633.75 45.25C2638.82 45.25 2642.73 47.1415 2645.41 50.4728C2648.13 53.8571 2649.75 58.9268 2649.75 65.5H2653.75C2653.75 58.3232 2651.99 52.2679 2648.53 47.9647C2645.02 43.6085 2639.93 41.25 2633.75 41.25V45.25ZM2649.75 65.5C2649.75 72.0732 2648.13 77.1429 2645.41 80.5272C2642.73 83.8585 2638.82 85.75 2633.75 85.75V89.75C2639.93 89.75 2645.02 87.3915 2648.53 83.0353C2651.99 78.7321 2653.75 72.6768 2653.75 65.5H2649.75ZM2721.25 106.25C2733.45 106.25 2743.79 102.219 2751.09 95.0176C2758.4 87.8134 2762.5 77.5891 2762.5 65.5H2758.5C2758.5 76.6609 2754.73 85.8116 2748.28 92.1699C2741.83 98.5306 2732.55 102.25 2721.25 102.25V106.25ZM2762.5 65.5C2762.5 53.2995 2758.47 43.07 2751.19 35.8886C2743.91 28.7099 2733.56 24.75 2721.25 24.75V28.75C2732.69 28.75 2741.97 32.4151 2748.38 38.7364C2754.78 45.055 2758.5 54.2005 2758.5 65.5H2762.5ZM2721.25 24.75C2709.05 24.75 2698.71 28.7806 2691.41 35.9824C2684.1 43.1866 2680 53.4109 2680 65.5H2684C2684 54.3391 2687.77 45.1884 2694.22 38.8301C2700.67 32.4694 2709.95 28.75 2721.25 28.75V24.75ZM2680 65.5C2680 77.7005 2684.03 87.93 2691.31 95.1114C2698.59 102.29 2708.94 106.25 2721.25 106.25V102.25C2709.81 102.25 2700.53 98.5849 2694.12 92.2636C2687.72 85.945 2684 76.7995 2684 65.5H2680ZM2721.25 85.75C2716.01 85.75 2711.91 83.8906 2709.08 80.5775C2706.23 77.2263 2704.5 72.1737 2704.5 65.5H2700.5C2700.5 72.8263 2702.4 78.8987 2706.04 83.1725C2709.72 87.4844 2714.99 89.75 2721.25 89.75V85.75ZM2704.5 65.5C2704.5 58.8263 2706.23 53.7737 2709.08 50.4225C2711.91 47.1094 2716.01 45.25 2721.25 45.25V41.25C2714.99 41.25 2709.72 43.5156 2706.04 47.8275C2702.4 52.1013 2700.5 58.1737 2700.5 65.5H2704.5ZM2721.25 45.25C2726.49 45.25 2730.59 47.1094 2733.42 50.4225C2736.27 53.7737 2738 58.8263 2738 65.5H2742C2742 58.1737 2740.1 52.1013 2736.46 47.8275C2732.78 43.5156 2727.51 41.25 2721.25 41.25V45.25ZM2738 65.5C2738 72.1737 2736.27 77.2263 2733.42 80.5775C2730.59 83.8906 2726.49 85.75 2721.25 85.75V89.75C2727.51 89.75 2732.78 87.4844 2736.46 83.1725C2740.1 78.8987 2742 72.8263 2742 65.5H2738ZM2787.75 49.75L2785.75 49.6226L2785.29 56.8549L2789.4 50.8831L2787.75 49.75ZM2807.25 29.5L2807.64 31.4612L2807.65 31.4603L2807.25 29.5ZM2829.5 25L2829.9 26.9603L2829.93 26.9535L2829.96 26.9456L2829.5 25ZM2847.25 6.25L2849.23 6.52639L2849.24 6.47886L2849.24 6.43107L2847.25 6.25ZM2847.5 3.5L2849.49 3.68107L2849.66 1.84436L2847.84 1.52938L2847.5 3.5ZM2828.75 0.25L2829.09 -1.72062L2827.26 -2.03801L2826.81 -0.235071L2828.75 0.25ZM2828 3.25L2826.06 2.76493L2826.05 2.8111L2826.04 2.85777L2828 3.25ZM2823.25 7.75L2822.89 5.78226L2822.85 5.78974L2822.81 5.79893L2823.25 7.75ZM2805.5 11.75L2805.92 13.7044L2805.93 13.7027L2805.94 13.7011L2805.5 11.75ZM2814.75 35C2801.95 35 2792.03 39.9914 2786.1 48.6169L2789.4 50.8831C2794.47 43.5086 2803.05 39 2814.75 39V35ZM2789.75 49.8774C2790.11 44.2495 2791.46 40.4018 2794.08 37.6216C2796.73 34.8091 2800.94 32.801 2807.64 31.4612L2806.86 27.5388C2799.81 28.949 2794.64 31.1909 2791.17 34.8784C2787.66 38.5982 2786.14 43.5005 2785.75 49.6226L2789.75 49.8774ZM2807.65 31.4603L2829.9 26.9603L2829.1 23.0397L2806.85 27.5397L2807.65 31.4603ZM2829.96 26.9456C2835.44 25.6406 2839.9 23.5026 2843.19 20.1106C2846.49 16.7031 2848.44 12.2108 2849.23 6.52639L2845.27 5.97361C2844.56 11.0392 2842.89 14.6719 2840.31 17.3269C2837.73 19.9974 2834.06 21.8594 2829.04 23.0544L2829.96 26.9456ZM2849.24 6.43107L2849.49 3.68107L2845.51 3.31893L2845.26 6.06893L2849.24 6.43107ZM2847.84 1.52938L2829.09 -1.72062L2828.41 2.22062L2847.16 5.47062L2847.84 1.52938ZM2826.81 -0.235071L2826.06 2.76493L2829.94 3.73507L2830.69 0.735071L2826.81 -0.235071ZM2826.04 2.85777C2825.85 3.79826 2825.51 4.3986 2825.08 4.80723C2824.65 5.22089 2823.98 5.58388 2822.89 5.78226L2823.61 9.71774C2825.27 9.41612 2826.72 8.77911 2827.85 7.69277C2828.99 6.6014 2829.65 5.20174 2829.96 3.64223L2826.04 2.85777ZM2822.81 5.79893L2805.06 9.79893L2805.94 13.7011L2823.69 9.70107L2822.81 5.79893ZM2805.08 9.79565C2793.18 12.3807 2784.2 17.8646 2778.23 26.4524C2772.29 34.9966 2769.5 46.3846 2769.5 60.5H2773.5C2773.5 46.8654 2776.21 36.3784 2781.52 28.7351C2786.8 21.1354 2794.82 16.1193 2805.92 13.7044L2805.08 9.79565ZM2769.5 60.5C2769.5 74.4548 2773.15 85.9113 2780.12 93.9077C2787.12 101.94 2797.26 106.25 2809.75 106.25V102.25C2798.24 102.25 2789.26 98.3102 2783.13 91.2798C2776.98 84.2137 2773.5 73.7952 2773.5 60.5H2769.5ZM2809.75 106.25C2821.42 106.25 2831.43 102.549 2838.54 96.0374C2845.66 89.5133 2849.75 80.2802 2849.75 69.5H2845.75C2845.75 79.2198 2842.09 87.3617 2835.84 93.0876C2829.57 98.8257 2820.58 102.25 2809.75 102.25V106.25ZM2849.75 69.5C2849.75 59.5127 2846.19 50.8606 2839.97 44.7032C2833.75 38.5466 2824.97 35 2814.75 35V39C2824.03 39 2831.75 42.2034 2837.16 47.5468C2842.56 52.8894 2845.75 60.4873 2845.75 69.5H2849.75ZM2809.75 85.75C2804.98 85.75 2801.15 84.1137 2798.51 81.3401C2795.86 78.5577 2794.25 74.4584 2794.25 69.25H2790.25C2790.25 75.2916 2792.14 80.4423 2795.61 84.0974C2799.1 87.7613 2804.02 89.75 2809.75 89.75V85.75ZM2794.25 69.25C2794.25 63.8891 2795.82 59.8725 2798.4 57.205C2800.99 54.544 2804.8 53 2809.75 53V49C2803.95 49 2799.01 50.831 2795.53 54.42C2792.06 58.0025 2790.25 63.1109 2790.25 69.25H2794.25ZM2809.75 53C2814.7 53 2818.44 54.5414 2820.95 57.214C2823.48 59.9024 2825 63.9834 2825 69.5H2829C2829 63.2666 2827.27 58.0976 2823.86 54.4735C2820.44 50.8336 2815.55 49 2809.75 49V53ZM2825 69.5C2825 74.7462 2823.49 78.7734 2820.95 81.4735C2818.42 84.1584 2814.68 85.75 2809.75 85.75V89.75C2815.57 89.75 2820.45 87.8416 2823.86 84.214C2827.26 80.6016 2829 75.5038 2829 69.5H2825ZM2895.5 106.25C2907.7 106.25 2918.04 102.219 2925.34 95.0176C2932.65 87.8134 2936.75 77.5891 2936.75 65.5H2932.75C2932.75 76.6609 2928.98 85.8116 2922.53 92.1699C2916.08 98.5306 2906.8 102.25 2895.5 102.25V106.25ZM2936.75 65.5C2936.75 53.2995 2932.72 43.07 2925.44 35.8886C2918.16 28.7099 2907.81 24.75 2895.5 24.75V28.75C2906.94 28.75 2916.22 32.4151 2922.63 38.7364C2929.03 45.055 2932.75 54.2005 2932.75 65.5H2936.75ZM2895.5 24.75C2883.3 24.75 2872.96 28.7806 2865.66 35.9824C2858.35 43.1866 2854.25 53.4109 2854.25 65.5H2858.25C2858.25 54.3391 2862.02 45.1884 2868.47 38.8301C2874.92 32.4694 2884.2 28.75 2895.5 28.75V24.75ZM2854.25 65.5C2854.25 77.7005 2858.28 87.93 2865.56 95.1114C2872.84 102.29 2883.19 106.25 2895.5 106.25V102.25C2884.06 102.25 2874.78 98.5849 2868.37 92.2636C2861.97 85.945 2858.25 76.7995 2858.25 65.5H2854.25ZM2895.5 85.75C2890.26 85.75 2886.16 83.8906 2883.33 80.5775C2880.48 77.2263 2878.75 72.1737 2878.75 65.5H2874.75C2874.75 72.8263 2876.65 78.8987 2880.29 83.1725C2883.97 87.4844 2889.24 89.75 2895.5 89.75V85.75ZM2878.75 65.5C2878.75 58.8263 2880.48 53.7737 2883.33 50.4225C2886.16 47.1094 2890.26 45.25 2895.5 45.25V41.25C2889.24 41.25 2883.97 43.5156 2880.29 47.8275C2876.65 52.1013 2874.75 58.1737 2874.75 65.5H2878.75ZM2895.5 45.25C2900.74 45.25 2904.84 47.1094 2907.67 50.4225C2910.52 53.7737 2912.25 58.8263 2912.25 65.5H2916.25C2916.25 58.1737 2914.35 52.1013 2910.71 47.8275C2907.03 43.5156 2901.76 41.25 2895.5 41.25V45.25ZM2912.25 65.5C2912.25 72.1737 2910.52 77.2263 2907.67 80.5775C2904.84 83.8906 2900.74 85.75 2895.5 85.75V89.75C2901.76 89.75 2907.03 87.4844 2910.71 83.1725C2914.35 78.8987 2916.25 72.8263 2916.25 65.5H2912.25ZM2990.5 28V26H2988.5V28H2990.5ZM2990.5 59V61H2992.5V59H2990.5ZM2963 28H2965V26H2963V28ZM2943 28V26H2941V28H2943ZM2990.5 77H2992.5V75H2990.5V77ZM2990.5 103H2988.5V105H2990.5V103ZM3010.5 103V105H3012.5V103H3010.5ZM3010.5 28H3012.5V26H3010.5V28ZM2988.5 28V59H2992.5V28H2988.5ZM2990.5 57H2975.75V61H2990.5V57ZM2975.75 57C2971.08 57 2968.5 56.2973 2967.07 55.1353C2965.77 54.0734 2965 52.266 2965 48.75H2961C2961 52.734 2961.86 56.0516 2964.55 58.2397C2967.12 60.3277 2970.92 61 2975.75 61V57ZM2965 48.75V28H2961V48.75H2965ZM2963 26H2943V30H2963V26ZM2941 28V48.75H2945V28H2941ZM2941 48.75C2941 57.996 2944.25 65.6422 2950.38 70.9489C2956.47 76.2248 2965.17 79 2975.75 79V75C2965.83 75 2958.16 72.4002 2953 67.9261C2947.87 63.4828 2945 57.004 2945 48.75H2941ZM2975.75 79H2990.5V75H2975.75V79ZM2988.5 77V103H2992.5V77H2988.5ZM2990.5 105H3010.5V101H2990.5V105ZM3012.5 103V28H3008.5V103H3012.5ZM3010.5 26H2990.5V30H3010.5V26ZM3081.25 28V26H3080.18L3079.58 26.8927L3081.25 28ZM3050.5 74.25H3048.5V80.8704L3052.17 75.3573L3050.5 74.25ZM3050.5 28H3052.5V26H3050.5V28ZM3031 28V26H3029V28H3031ZM3031 103H3029V105H3031V103ZM3050.75 103V105H3051.82L3052.42 104.107L3050.75 103ZM3081.5 56.75H3083.5V50.1296L3079.83 55.6427L3081.5 56.75ZM3081.5 103H3079.5V105H3081.5V103ZM3101 103V105H3103V103H3101ZM3101 28H3103V26H3101V28ZM3079.58 26.8927L3048.83 73.1427L3052.17 75.3573L3082.92 29.1073L3079.58 26.8927ZM3052.5 74.25V28H3048.5V74.25H3052.5ZM3050.5 26H3031V30H3050.5V26ZM3029 28V103H3033V28H3029ZM3031 105H3050.75V101H3031V105ZM3052.42 104.107L3083.17 57.8573L3079.83 55.6427L3049.08 101.893L3052.42 104.107ZM3079.5 56.75V103H3083.5V56.75H3079.5ZM3081.5 105H3101V101H3081.5V105ZM3103 103V28H3099V103H3103ZM3101 26H3081.25V30H3101V26ZM3181.75 2.25L3183.74 2.46157L3183.95 0.520775L3182.01 0.266981L3181.75 2.25ZM3166.5 0.25L3166.76 -1.73302L3164.87 -1.98053L3164.53 -0.107771L3166.5 0.25ZM3146.5 0.25L3148.47 -0.107771L3148.13 -1.98053L3146.24 -1.73302L3146.5 0.25ZM3131.25 2.25L3130.99 0.266981L3129.05 0.520775L3129.26 2.46157L3131.25 2.25ZM3171.75 28V26H3170.68L3170.08 26.8927L3171.75 28ZM3141 74.25H3139V80.8704L3142.67 75.3573L3141 74.25ZM3141 28H3143V26H3141V28ZM3121.5 28V26H3119.5V28H3121.5ZM3121.5 103H3119.5V105H3121.5V103ZM3141.25 103V105H3142.32L3142.92 104.107L3141.25 103ZM3172 56.75H3174V50.1296L3170.33 55.6427L3172 56.75ZM3172 103H3170V105H3172V103ZM3191.5 103V105H3193.5V103H3191.5ZM3191.5 28H3193.5V26H3191.5V28ZM3156.5 23C3164.06 23 3170.51 21.1771 3175.28 17.6382C3180.1 14.0709 3183.06 8.86652 3183.74 2.46157L3179.76 2.03843C3179.19 7.38348 3176.78 11.5541 3172.9 14.4243C3168.99 17.3229 3163.44 19 3156.5 19V23ZM3182.01 0.266981L3166.76 -1.73302L3166.24 2.23302L3181.49 4.23302L3182.01 0.266981ZM3164.53 -0.107771C3164.11 2.21884 3163.09 3.82598 3161.76 4.86486C3160.43 5.91541 3158.64 6.5 3156.5 6.5V10.5C3159.36 10.5 3162.07 9.70959 3164.24 8.01014C3166.41 6.29902 3167.89 3.78116 3168.47 0.607771L3164.53 -0.107771ZM3156.5 6.5C3154.36 6.5 3152.57 5.91541 3151.24 4.86486C3149.91 3.82598 3148.89 2.21884 3148.47 -0.107771L3144.53 0.607771C3145.11 3.78116 3146.59 6.29902 3148.76 8.01014C3150.93 9.70959 3153.64 10.5 3156.5 10.5V6.5ZM3146.24 -1.73302L3130.99 0.266981L3131.51 4.23302L3146.76 2.23302L3146.24 -1.73302ZM3129.26 2.46157C3129.94 8.86652 3132.9 14.0709 3137.72 17.6382C3142.49 21.1771 3148.94 23 3156.5 23V19C3149.56 19 3144.01 17.3229 3140.1 14.4243C3136.22 11.5541 3133.81 7.38348 3133.24 2.03843L3129.26 2.46157ZM3170.08 26.8927L3139.33 73.1427L3142.67 75.3573L3173.42 29.1073L3170.08 26.8927ZM3143 74.25V28H3139V74.25H3143ZM3141 26H3121.5V30H3141V26ZM3119.5 28V103H3123.5V28H3119.5ZM3121.5 105H3141.25V101H3121.5V105ZM3142.92 104.107L3173.67 57.8573L3170.33 55.6427L3139.58 101.893L3142.92 104.107ZM3170 56.75V103H3174V56.75H3170ZM3172 105H3191.5V101H3172V105ZM3193.5 103V28H3189.5V103H3193.5ZM3191.5 26H3171.75V30H3191.5V26ZM3321.5 28H3323.5V26H3321.5V28ZM3252 28V26H3250V28H3252ZM3252 103H3250V105H3252V103ZM3272 103V105H3274V103H3272ZM3272 46V44H3270V46H3272ZM3301.5 46H3303.5V44H3301.5V46ZM3301.5 103H3299.5V105H3301.5V103ZM3321.5 103V105H3323.5V103H3321.5ZM3321.5 26H3252V30H3321.5V26ZM3250 28V103H3254V28H3250ZM3252 105H3272V101H3252V105ZM3274 103V46H3270V103H3274ZM3272 48H3301.5V44H3272V48ZM3299.5 46V103H3303.5V46H3299.5ZM3301.5 105H3321.5V101H3301.5V105ZM3323.5 103V28H3319.5V103H3323.5ZM3361 38.5L3359.01 38.6896L3359.49 43.7549L3362.59 39.7169L3361 38.5ZM3360 28L3361.99 27.8104L3361.82 26H3360V28ZM3342 28V26H3340V28H3342ZM3342 128H3340V130H3342V128ZM3362 128V130H3364V128H3362ZM3362 94.25L3363.47 92.8959L3360 89.1221V94.25H3362ZM3385.25 24.75C3374.38 24.75 3365.54 29.2874 3359.41 37.2831L3362.59 39.7169C3367.96 32.7126 3375.62 28.75 3385.25 28.75V24.75ZM3362.99 38.3104L3361.99 27.8104L3358.01 28.1896L3359.01 38.6896L3362.99 38.3104ZM3360 26H3342V30H3360V26ZM3340 28V128H3344V28H3340ZM3342 130H3362V126H3342V130ZM3364 128V94.25H3360V128H3364ZM3360.53 95.6041C3366.65 102.257 3374.93 106.25 3385.25 106.25V102.25C3376.07 102.25 3368.85 98.7428 3363.47 92.8959L3360.53 95.6041ZM3385.25 106.25C3395.34 106.25 3403.9 102.115 3409.91 94.8706C3415.9 87.6565 3419.25 77.4852 3419.25 65.5H3415.25C3415.25 76.7648 3412.1 85.9685 3406.84 92.3169C3401.6 98.6347 3394.16 102.25 3385.25 102.25V106.25ZM3419.25 65.5C3419.25 53.4128 3416.04 43.2358 3410.11 36.0406C3404.14 28.8062 3395.57 24.75 3385.25 24.75V28.75C3394.43 28.75 3401.86 32.3188 3407.02 38.5844C3412.21 44.8892 3415.25 54.0872 3415.25 65.5H3419.25ZM3379 85.75C3373.93 85.75 3370.09 83.8623 3367.48 80.5428C3364.81 77.162 3363.25 72.0895 3363.25 65.5H3359.25C3359.25 72.6605 3360.94 78.713 3364.34 83.0197C3367.78 87.3877 3372.82 89.75 3379 89.75V85.75ZM3363.25 65.5C3363.25 58.9105 3364.81 53.838 3367.48 50.4572C3370.09 47.1377 3373.93 45.25 3379 45.25V41.25C3372.82 41.25 3367.78 43.6123 3364.34 47.9803C3360.94 52.287 3359.25 58.3395 3359.25 65.5H3363.25ZM3379 45.25C3384.07 45.25 3387.98 47.1415 3390.66 50.4728C3393.38 53.8571 3395 58.9268 3395 65.5H3399C3399 58.3232 3397.24 52.2679 3393.78 47.9647C3390.27 43.6085 3385.18 41.25 3379 41.25V45.25ZM3395 65.5C3395 72.0732 3393.38 77.1429 3390.66 80.5272C3387.98 83.8585 3384.07 85.75 3379 85.75V89.75C3385.18 89.75 3390.27 87.3915 3393.78 83.0353C3397.24 78.7321 3399 72.6768 3399 65.5H3395ZM3466.5 106.25C3478.7 106.25 3489.04 102.219 3496.34 95.0176C3503.65 87.8134 3507.75 77.5891 3507.75 65.5H3503.75C3503.75 76.6609 3499.98 85.8116 3493.53 92.1699C3487.08 98.5306 3477.8 102.25 3466.5 102.25V106.25ZM3507.75 65.5C3507.75 53.2995 3503.72 43.07 3496.44 35.8886C3489.16 28.7099 3478.81 24.75 3466.5 24.75V28.75C3477.94 28.75 3487.22 32.4151 3493.63 38.7364C3500.03 45.055 3503.75 54.2005 3503.75 65.5H3507.75ZM3466.5 24.75C3454.3 24.75 3443.96 28.7806 3436.66 35.9824C3429.35 43.1866 3425.25 53.4109 3425.25 65.5H3429.25C3429.25 54.3391 3433.02 45.1884 3439.47 38.8301C3445.92 32.4694 3455.2 28.75 3466.5 28.75V24.75ZM3425.25 65.5C3425.25 77.7005 3429.28 87.93 3436.56 95.1114C3443.84 102.29 3454.19 106.25 3466.5 106.25V102.25C3455.06 102.25 3445.78 98.5849 3439.37 92.2636C3432.97 85.945 3429.25 76.7995 3429.25 65.5H3425.25ZM3466.5 85.75C3461.26 85.75 3457.16 83.8906 3454.33 80.5775C3451.48 77.2263 3449.75 72.1737 3449.75 65.5H3445.75C3445.75 72.8263 3447.65 78.8987 3451.29 83.1725C3454.97 87.4844 3460.24 89.75 3466.5 89.75V85.75ZM3449.75 65.5C3449.75 58.8263 3451.48 53.7737 3454.33 50.4225C3457.16 47.1094 3461.26 45.25 3466.5 45.25V41.25C3460.24 41.25 3454.97 43.5156 3451.29 47.8275C3447.65 52.1013 3445.75 58.1737 3445.75 65.5H3449.75ZM3466.5 45.25C3471.74 45.25 3475.84 47.1094 3478.67 50.4225C3481.52 53.7737 3483.25 58.8263 3483.25 65.5H3487.25C3487.25 58.1737 3485.35 52.1013 3481.71 47.8275C3478.03 43.5156 3472.76 41.25 3466.5 41.25V45.25ZM3483.25 65.5C3483.25 72.1737 3481.52 77.2263 3478.67 80.5775C3475.84 83.8906 3471.74 85.75 3466.5 85.75V89.75C3472.76 89.75 3478.03 87.4844 3481.71 83.1725C3485.35 78.8987 3487.25 72.8263 3487.25 65.5H3483.25ZM3589.25 81.75L3591.17 82.3216L3591.74 80.4127L3589.83 79.8357L3589.25 81.75ZM3570.25 76L3570.83 74.0857L3569.02 73.5389L3568.37 75.3115L3570.25 76ZM3570.25 55L3568.37 55.6885L3569.02 57.4611L3570.83 56.9143L3570.25 55ZM3589.25 49.25L3589.83 51.1643L3591.74 50.5873L3591.17 48.6784L3589.25 49.25ZM3554.5 106.25C3572.39 106.25 3586.6 97.6336 3591.17 82.3216L3587.33 81.1784C3583.4 94.3664 3571.11 102.25 3554.5 102.25V106.25ZM3589.83 79.8357L3570.83 74.0857L3569.67 77.9143L3588.67 83.6643L3589.83 79.8357ZM3568.37 75.3115C3567.1 78.7717 3565.25 81.3591 3562.93 83.083C3560.63 84.7989 3557.74 85.75 3554.25 85.75V89.75C3558.51 89.75 3562.25 88.5761 3565.32 86.292C3568.38 84.0159 3570.65 80.7283 3572.13 76.6885L3568.37 75.3115ZM3554.25 85.75C3549.31 85.75 3545.4 83.8655 3542.68 80.5196C3539.92 77.1284 3538.25 72.0567 3538.25 65.5H3534.25C3534.25 72.6933 3536.08 78.7466 3539.57 83.0429C3543.1 87.3845 3548.19 89.75 3554.25 89.75V85.75ZM3538.25 65.5C3538.25 58.9433 3539.92 53.8716 3542.68 50.4804C3545.4 47.1345 3549.31 45.25 3554.25 45.25V41.25C3548.19 41.25 3543.1 43.6155 3539.57 47.9571C3536.08 52.2534 3534.25 58.3067 3534.25 65.5H3538.25ZM3554.25 45.25C3557.74 45.25 3560.63 46.2011 3562.93 47.917C3565.25 49.6409 3567.1 52.2283 3568.37 55.6885L3572.13 54.3115C3570.65 50.2717 3568.38 46.9841 3565.32 44.708C3562.25 42.4239 3558.51 41.25 3554.25 41.25V45.25ZM3570.83 56.9143L3589.83 51.1643L3588.67 47.3357L3569.67 53.0857L3570.83 56.9143ZM3591.17 48.6784C3586.6 33.3664 3572.39 24.75 3554.5 24.75V28.75C3571.11 28.75 3583.4 36.6336 3587.33 49.8216L3591.17 48.6784ZM3554.5 24.75C3542.42 24.75 3532.2 28.7852 3524.99 35.992C3517.79 43.1988 3513.75 53.4205 3513.75 65.5H3517.75C3517.75 54.3295 3521.46 45.1762 3527.82 38.8205C3534.18 32.4648 3543.33 28.75 3554.5 28.75V24.75ZM3513.75 65.5C3513.75 77.5795 3517.79 87.8012 3524.99 95.008C3532.2 102.215 3542.42 106.25 3554.5 106.25V102.25C3543.33 102.25 3534.18 98.5352 3527.82 92.1795C3521.46 85.8238 3517.75 76.6705 3517.75 65.5H3513.75ZM3665 28H3667V26H3665V28ZM3593 28V26H3591V28H3593ZM3593 46H3591V48H3593V46ZM3619 46H3621V44H3619V46ZM3619 103H3617V105H3619V103ZM3639 103V105H3641V103H3639ZM3639 46V44H3637V46H3639ZM3665 46V48H3667V46H3665ZM3665 26H3593V30H3665V26ZM3591 28V46H3595V28H3591ZM3593 48H3619V44H3593V48ZM3617 46V103H3621V46H3617ZM3619 105H3639V101H3619V105ZM3641 103V46H3637V103H3641ZM3639 48H3665V44H3639V48ZM3667 46V28H3663V46H3667ZM3678.25 18.5H3676.25V20.5H3678.25V18.5ZM3699.75 18.5V20.5H3701.75V18.5H3699.75ZM3699.75 1.5H3701.75V-0.5H3699.75V1.5ZM3678.25 1.5V-0.5H3676.25V1.5H3678.25ZM3679 103H3677V105H3679V103ZM3699 103V105H3701V103H3699ZM3699 28H3701V26H3699V28ZM3679 28V26H3677V28H3679ZM3678.25 20.5H3699.75V16.5H3678.25V20.5ZM3701.75 18.5V1.5H3697.75V18.5H3701.75ZM3699.75 -0.5H3678.25V3.5H3699.75V-0.5ZM3676.25 1.5V18.5H3680.25V1.5H3676.25ZM3679 105H3699V101H3679V105ZM3701 103V28H3697V103H3701ZM3699 26H3679V30H3699V26ZM3677 28V103H3681V28H3677ZM3739.75 38.5L3737.76 38.6896L3738.24 43.7549L3741.34 39.7169L3739.75 38.5ZM3738.75 28L3740.74 27.8104L3740.57 26H3738.75V28ZM3720.75 28V26H3718.75V28H3720.75ZM3720.75 128H3718.75V130H3720.75V128ZM3740.75 128V130H3742.75V128H3740.75ZM3740.75 94.25L3742.22 92.8959L3738.75 89.1221V94.25H3740.75ZM3764 24.75C3753.13 24.75 3744.29 29.2874 3738.16 37.2831L3741.34 39.7169C3746.71 32.7126 3754.37 28.75 3764 28.75V24.75ZM3741.74 38.3104L3740.74 27.8104L3736.76 28.1896L3737.76 38.6896L3741.74 38.3104ZM3738.75 26H3720.75V30H3738.75V26ZM3718.75 28V128H3722.75V28H3718.75ZM3720.75 130H3740.75V126H3720.75V130ZM3742.75 128V94.25H3738.75V128H3742.75ZM3739.28 95.6041C3745.4 102.257 3753.68 106.25 3764 106.25V102.25C3754.82 102.25 3747.6 98.7428 3742.22 92.8959L3739.28 95.6041ZM3764 106.25C3774.09 106.25 3782.65 102.115 3788.66 94.8706C3794.65 87.6565 3798 77.4852 3798 65.5H3794C3794 76.7648 3790.85 85.9685 3785.59 92.3169C3780.35 98.6347 3772.91 102.25 3764 102.25V106.25ZM3798 65.5C3798 53.4128 3794.79 43.2358 3788.86 36.0406C3782.89 28.8062 3774.32 24.75 3764 24.75V28.75C3773.18 28.75 3780.61 32.3188 3785.77 38.5844C3790.96 44.8892 3794 54.0872 3794 65.5H3798ZM3757.75 85.75C3752.68 85.75 3748.84 83.8623 3746.23 80.5428C3743.56 77.162 3742 72.0895 3742 65.5H3738C3738 72.6605 3739.69 78.713 3743.09 83.0197C3746.53 87.3877 3751.57 89.75 3757.75 89.75V85.75ZM3742 65.5C3742 58.9105 3743.56 53.838 3746.23 50.4572C3748.84 47.1377 3752.68 45.25 3757.75 45.25V41.25C3751.57 41.25 3746.53 43.6123 3743.09 47.9803C3739.69 52.287 3738 58.3395 3738 65.5H3742ZM3757.75 45.25C3762.82 45.25 3766.73 47.1415 3769.41 50.4728C3772.13 53.8571 3773.75 58.9268 3773.75 65.5H3777.75C3777.75 58.3232 3775.99 52.2679 3772.53 47.9647C3769.02 43.6085 3763.93 41.25 3757.75 41.25V45.25ZM3773.75 65.5C3773.75 72.0732 3772.13 77.1429 3769.41 80.5272C3766.73 83.8585 3762.82 85.75 3757.75 85.75V89.75C3763.93 89.75 3769.02 87.3915 3772.53 83.0353C3775.99 78.7321 3777.75 72.6768 3777.75 65.5H3773.75Z" fill="url(#paint0_linear_139_739)" fill-opacity="0.8"/>
<defs>
<linearGradient id="paint0_linear_139_739" x1="1898" y1="-45" x2="1898" y2="147" gradientUnits="userSpaceOnUse">
<stop stop-color="#4238E5"/>
<stop offset="1" stop-color="#E01DAA"/>
</linearGradient>
</defs>
</svg>
