<svg width="3850" height="133" viewBox="0 0 3850 133" fill="none" xmlns="http://www.w3.org/2000/svg">
<path d="M22.25 73.788V71.788H19.8199L20.29 74.171L22.25 73.788ZM49 73.788V75.788H51V73.788H49ZM49 59.788H51V57.788H49V59.788ZM22.5 59.788L20.5601 59.3153L19.96 61.788H22.5V59.788ZM57.75 56.538L55.9 57.3027L56.63 59.068L58.4301 58.4191L57.75 56.538ZM75.75 50.038L76.4301 51.9191L78.3101 51.2414L77.63 49.3631L75.75 50.038ZM75.75 85.038L77.63 85.7129L78.3101 83.8346L76.4301 83.1569L75.75 85.038ZM57.75 78.538L58.4301 76.6569L56.63 76.008L55.9 77.7733L57.75 78.538ZM40.5 88.288C36.08 88.288 32.5099 86.8825 29.8199 84.4093C27.1099 81.9172 25.15 78.2125 24.21 73.405L20.29 74.171C21.35 79.6135 23.64 84.1588 27.12 87.3542C30.61 90.5685 35.17 92.288 40.5 92.288V88.288ZM22.25 75.788H49V71.788H22.25V75.788ZM51 73.788V59.788H47V73.788H51ZM49 57.788H22.5V61.788H49V57.788ZM24.4399 60.2607C25.4899 55.9718 27.48 52.6197 30.17 50.3454C32.84 48.0818 36.31 46.788 40.5 46.788V42.788C35.44 42.788 31.03 44.3692 27.58 47.2931C24.14 50.2063 21.7601 54.3542 20.5601 59.3153L24.4399 60.2607ZM40.5 46.788C47.88 46.788 53.19 50.7379 55.9 57.3027L59.6 55.7733C56.31 47.8381 49.62 42.788 40.5 42.788V46.788ZM58.4301 58.4191L76.4301 51.9191L75.0699 48.1569L57.0699 54.6569L58.4301 58.4191ZM77.63 49.3631C72.53 35.1189 58.36 26.788 40.75 26.788V30.788C57.14 30.788 69.47 38.4571 73.87 50.7129L77.63 49.3631ZM40.75 26.788C28.67 26.788 18.45 30.8232 11.24 38.03C4.03999 45.2368 0 55.4585 0 67.538H4C4 56.3675 7.70995 47.2142 14.0699 40.8585C20.4299 34.5028 29.58 30.788 40.75 30.788V26.788ZM0 67.538C0 79.6175 4.03999 89.8391 11.24 97.046C18.45 104.253 28.67 108.288 40.75 108.288V104.288C29.58 104.288 20.4299 100.573 14.0699 94.2175C7.70995 87.8619 4 78.7085 4 67.538H0ZM40.75 108.288C58.36 108.288 72.53 99.9571 77.63 85.7129L73.87 84.3631C69.47 96.6189 57.14 104.288 40.75 104.288V108.288ZM76.4301 83.1569L58.4301 76.6569L57.0699 80.4191L75.0699 86.9191L76.4301 83.1569ZM55.9 77.7733C53.19 84.3381 47.88 88.288 40.5 88.288V92.288C49.62 92.288 56.31 87.2379 59.6 79.3027L55.9 77.7733ZM158.25 87.038H156.25V89.038H158.25V87.038ZM158.25 30.038H160.25V28.038H158.25V30.038ZM92.75 30.038V28.038H90.75V30.038H92.75ZM91.25 87.038V89.038H92.9301L93.22 87.3807L91.25 87.038ZM82 87.038V85.038H80V87.038H82ZM82 122.538H80V124.538H82V122.538ZM101.25 122.538V124.538H103.25V122.538H101.25ZM101.25 105.038V103.038H99.25V105.038H101.25ZM149 105.038H151V103.038H149V105.038ZM149 122.538H147V124.538H149V122.538ZM168.25 122.538V124.538H170.25V122.538H168.25ZM168.25 87.038H170.25V85.038H168.25V87.038ZM110.75 87.538L108.77 87.2552L108.44 89.538H110.75V87.538ZM112.25 47.538V45.538H110.25V47.538H112.25ZM138.5 47.538H140.5V45.538H138.5V47.538ZM138.5 87.538V89.538H140.5V87.538H138.5ZM160.25 87.038V30.038H156.25V87.038H160.25ZM158.25 28.038H92.75V32.038H158.25V28.038ZM90.75 30.038V61.288H94.75V30.038H90.75ZM90.75 61.288C90.75 73.0079 90.25 81.1192 89.28 86.6953L93.22 87.3807C94.25 81.4568 94.75 73.0681 94.75 61.288H90.75ZM91.25 85.038H82V89.038H91.25V85.038ZM80 87.038V122.538H84V87.038H80ZM82 124.538H101.25V120.538H82V124.538ZM103.25 122.538V105.038H99.25V122.538H103.25ZM101.25 107.038H149V103.038H101.25V107.038ZM147 105.038V122.538H151V105.038H147ZM149 124.538H168.25V120.538H149V124.538ZM170.25 122.538V87.038H166.25V122.538H170.25ZM168.25 85.038H158.25V89.038H168.25V85.038ZM112.73 87.8208C113.75 80.6967 114.25 71.8459 114.25 62.038H110.25C110.25 71.7301 109.75 80.3793 108.77 87.2552L112.73 87.8208ZM114.25 62.038V47.538H110.25V62.038H114.25ZM112.25 49.538H138.5V45.538H112.25V49.538ZM136.5 47.538V87.538H140.5V47.538H136.5ZM138.5 85.538H110.75V89.538H138.5V85.538ZM233 30.038V28.038H231.93L231.33 28.9307L233 30.038ZM202.25 76.288H200.25V82.9084L203.92 77.3953L202.25 76.288ZM202.25 30.038H204.25V28.038H202.25V30.038ZM182.75 30.038V28.038H180.75V30.038H182.75ZM182.75 105.038H180.75V107.038H182.75V105.038ZM202.5 105.038V107.038H203.57L204.17 106.145L202.5 105.038ZM233.25 58.788H235.25V52.1676L231.58 57.6807L233.25 58.788ZM233.25 105.038H231.25V107.038H233.25V105.038ZM252.75 105.038V107.038H254.75V105.038H252.75ZM252.75 30.038H254.75V28.038H252.75V30.038ZM231.33 28.9307L200.58 75.1807L203.92 77.3953L234.67 31.1453L231.33 28.9307ZM204.25 76.288V30.038H200.25V76.288H204.25ZM202.25 28.038H182.75V32.038H202.25V28.038ZM180.75 30.038V105.038H184.75V30.038H180.75ZM182.75 107.038H202.5V103.038H182.75V107.038ZM204.17 106.145L234.92 59.8953L231.58 57.6807L200.83 103.931L204.17 106.145ZM231.25 58.788V105.038H235.25V58.788H231.25ZM233.25 107.038H252.75V103.038H233.25V107.038ZM254.75 105.038V30.038H250.75V105.038H254.75ZM252.75 28.038H233V32.038H252.75V28.038ZM322.75 30.038V28.038H320.75V30.038H322.75ZM322.75 57.788V59.788H324.75V57.788H322.75ZM293.25 57.788H291.25V59.788H293.25V57.788ZM293.25 30.038H295.25V28.038H293.25V30.038ZM273.25 30.038V28.038H271.25V30.038H273.25ZM273.25 105.038H271.25V107.038H273.25V105.038ZM293.25 105.038V107.038H295.25V105.038H293.25ZM293.25 75.788V73.788H291.25V75.788H293.25ZM322.75 75.788H324.75V73.788H322.75V75.788ZM322.75 105.038H320.75V107.038H322.75V105.038ZM342.75 105.038V107.038H344.75V105.038H342.75ZM342.75 30.038H344.75V28.038H342.75V30.038ZM320.75 30.038V57.788H324.75V30.038H320.75ZM322.75 55.788H293.25V59.788H322.75V55.788ZM295.25 57.788V30.038H291.25V57.788H295.25ZM293.25 28.038H273.25V32.038H293.25V28.038ZM271.25 30.038V105.038H275.25V30.038H271.25ZM273.25 107.038H293.25V103.038H273.25V107.038ZM295.25 105.038V75.788H291.25V105.038H295.25ZM293.25 77.788H322.75V73.788H293.25V77.788ZM320.75 75.788V105.038H324.75V75.788H320.75ZM322.75 107.038H342.75V103.038H322.75V107.038ZM344.75 105.038V30.038H340.75V105.038H344.75ZM342.75 28.038H322.75V32.038H342.75V28.038ZM413.5 30.038V28.038H412.43L411.83 28.9307L413.5 30.038ZM382.75 76.288H380.75V82.9084L384.42 77.3953L382.75 76.288ZM382.75 30.038H384.75V28.038H382.75V30.038ZM363.25 30.038V28.038H361.25V30.038H363.25ZM363.25 105.038H361.25V107.038H363.25V105.038ZM383 105.038V107.038H384.07L384.67 106.145L383 105.038ZM413.75 58.788H415.75V52.1676L412.08 57.6807L413.75 58.788ZM413.75 105.038H411.75V107.038H413.75V105.038ZM433.25 105.038V107.038H435.25V105.038H433.25ZM433.25 30.038H435.25V28.038H433.25V30.038ZM411.83 28.9307L381.08 75.1807L384.42 77.3953L415.17 31.1453L411.83 28.9307ZM384.75 76.288V30.038H380.75V76.288H384.75ZM382.75 28.038H363.25V32.038H382.75V28.038ZM361.25 30.038V105.038H365.25V30.038H361.25ZM363.25 107.038H383V103.038H363.25V107.038ZM384.67 106.145L415.42 59.8953L412.08 57.6807L381.33 103.931L384.67 106.145ZM411.75 58.788V105.038H415.75V58.788H411.75ZM413.75 107.038H433.25V103.038H413.75V107.038ZM435.25 105.038V30.038H431.25V105.038H435.25ZM433.25 28.038H413.5V32.038H433.25V28.038ZM514 4.28801L515.99 4.49958L516.2 2.55878L514.26 2.30499L514 4.28801ZM498.75 2.28801L499.01 0.30499L497.12 0.0574799L496.78 1.93024L498.75 2.28801ZM478.75 2.28801L480.72 1.93024L480.38 0.0574799L478.49 0.30499L478.75 2.28801ZM463.5 4.28801L463.24 2.30499L461.3 2.55878L461.51 4.49958L463.5 4.28801ZM504 30.038V28.038H502.93L502.33 28.9307L504 30.038ZM473.25 76.288H471.25V82.9084L474.92 77.3953L473.25 76.288ZM473.25 30.038H475.25V28.038H473.25V30.038ZM453.75 30.038V28.038H451.75V30.038H453.75ZM453.75 105.038H451.75V107.038H453.75V105.038ZM473.5 105.038V107.038H474.57L475.17 106.145L473.5 105.038ZM504.25 58.788H506.25V52.1676L502.58 57.6807L504.25 58.788ZM504.25 105.038H502.25V107.038H504.25V105.038ZM523.75 105.038V107.038H525.75V105.038H523.75ZM523.75 30.038H525.75V28.038H523.75V30.038ZM488.75 25.038C496.31 25.038 502.76 23.2151 507.53 19.6762C512.35 16.1089 515.31 10.9045 515.99 4.49958L512.01 4.07644C511.44 9.42149 509.03 13.5921 505.15 16.4623C501.24 19.3609 495.69 21.038 488.75 21.038V25.038ZM514.26 2.30499L499.01 0.30499L498.49 4.27103L513.74 6.27103L514.26 2.30499ZM496.78 1.93024C496.36 4.25685 495.34 5.86399 494.01 6.90287C492.68 7.95342 490.89 8.53801 488.75 8.53801V12.538C491.61 12.538 494.32 11.7476 496.49 10.0482C498.66 8.33703 500.14 5.81917 500.72 2.64578L496.78 1.93024ZM488.75 8.53801C486.61 8.53801 484.82 7.95342 483.49 6.90287C482.16 5.86399 481.14 4.25685 480.72 1.93024L476.78 2.64578C477.36 5.81917 478.84 8.33703 481.01 10.0482C483.18 11.7476 485.89 12.538 488.75 12.538V8.53801ZM478.49 0.30499L463.24 2.30499L463.76 6.27103L479.01 4.27103L478.49 0.30499ZM461.51 4.49958C462.19 10.9045 465.15 16.1089 469.97 19.6762C474.74 23.2151 481.19 25.038 488.75 25.038V21.038C481.81 21.038 476.26 19.3609 472.35 16.4623C468.47 13.5921 466.06 9.42149 465.49 4.07644L461.51 4.49958ZM502.33 28.9307L471.58 75.1807L474.92 77.3953L505.67 31.1453L502.33 28.9307ZM475.25 76.288V30.038H471.25V76.288H475.25ZM473.25 28.038H453.75V32.038H473.25V28.038ZM451.75 30.038V105.038H455.75V30.038H451.75ZM453.75 107.038H473.5V103.038H453.75V107.038ZM475.17 106.145L505.92 59.8953L502.58 57.6807L471.83 103.931L475.17 106.145ZM502.25 58.788V105.038H506.25V58.788H502.25ZM504.25 107.038H523.75V103.038H504.25V107.038ZM525.75 105.038V30.038H521.75V105.038H525.75ZM523.75 28.038H504V32.038H523.75V28.038ZM603.25 40.538L601.26 40.7276L601.74 45.7929L604.84 41.7549L603.25 40.538ZM602.25 30.038L604.24 29.8484L604.07 28.038H602.25V30.038ZM584.25 30.038V28.038H582.25V30.038H584.25ZM584.25 130.038H582.25V132.038H584.25V130.038ZM604.25 130.038V132.038H606.25V130.038H604.25ZM604.25 96.288L605.72 94.9339L602.25 91.1601V96.288H604.25ZM627.5 26.788C616.63 26.788 607.79 31.3254 601.66 39.3211L604.84 41.7549C610.21 34.7506 617.87 30.788 627.5 30.788V26.788ZM605.24 40.3484L604.24 29.8484L600.26 30.2276L601.26 40.7276L605.24 40.3484ZM602.25 28.038H584.25V32.038H602.25V28.038ZM582.25 30.038V130.038H586.25V30.038H582.25ZM584.25 132.038H604.25V128.038H584.25V132.038ZM606.25 130.038V96.288H602.25V130.038H606.25ZM602.78 97.6421C608.9 104.295 617.18 108.288 627.5 108.288V104.288C618.32 104.288 611.1 100.781 605.72 94.9339L602.78 97.6421ZM627.5 108.288C637.59 108.288 646.15 104.153 652.16 96.9086C658.15 89.6945 661.5 79.5232 661.5 67.538H657.5C657.5 78.8028 654.35 88.0065 649.09 94.3549C643.85 100.673 636.41 104.288 627.5 104.288V108.288ZM661.5 67.538C661.5 55.4508 658.29 45.2738 652.36 38.0786C646.39 30.8442 637.82 26.788 627.5 26.788V30.788C636.68 30.788 644.11 34.3568 649.27 40.6224C654.46 46.9272 657.5 56.1252 657.5 67.538H661.5ZM621.25 87.788C616.18 87.788 612.34 85.9003 609.73 82.5808C607.06 79.2 605.5 74.1275 605.5 67.538H601.5C601.5 74.6985 603.19 80.751 606.59 85.0577C610.03 89.4257 615.07 91.788 621.25 91.788V87.788ZM605.5 67.538C605.5 60.9485 607.06 55.876 609.73 52.4952C612.34 49.1757 616.18 47.288 621.25 47.288V43.288C615.07 43.288 610.03 45.6503 606.59 50.0183C603.19 54.325 601.5 60.3775 601.5 67.538H605.5ZM621.25 47.288C626.32 47.288 630.23 49.1795 632.91 52.5108C635.63 55.8951 637.25 60.9648 637.25 67.538H641.25C641.25 60.3612 639.49 54.3059 636.03 50.0027C632.52 45.6465 627.43 43.288 621.25 43.288V47.288ZM637.25 67.538C637.25 74.1112 635.63 79.1809 632.91 82.5652C630.23 85.8965 626.32 87.788 621.25 87.788V91.788C627.43 91.788 632.52 89.4295 636.03 85.0733C639.49 80.7701 641.25 74.7148 641.25 67.538H637.25ZM708.75 108.288C720.95 108.288 731.29 104.257 738.59 97.0556C745.9 89.8514 750 79.6271 750 67.538H746C746 78.6989 742.23 87.8496 735.78 94.2079C729.33 100.569 720.05 104.288 708.75 104.288V108.288ZM750 67.538C750 55.3375 745.97 45.108 738.69 37.9266C731.41 30.7479 721.06 26.788 708.75 26.788V30.788C720.19 30.788 729.47 34.4531 735.88 40.7744C742.28 47.093 746 56.2385 746 67.538H750ZM708.75 26.788C696.55 26.788 686.21 30.8186 678.91 38.0204C671.6 45.2246 667.5 55.4489 667.5 67.538H671.5C671.5 56.3771 675.27 47.2264 681.72 40.8681C688.17 34.5074 697.45 30.788 708.75 30.788V26.788ZM667.5 67.538C667.5 79.7385 671.53 89.968 678.81 97.1494C686.09 104.328 696.44 108.288 708.75 108.288V104.288C697.31 104.288 688.03 100.623 681.62 94.3016C675.22 87.983 671.5 78.8375 671.5 67.538H667.5ZM708.75 87.788C703.51 87.788 699.41 85.9286 696.58 82.6155C693.73 79.2643 692 74.2117 692 67.538H688C688 74.8643 689.9 80.9367 693.54 85.2105C697.22 89.5224 702.49 91.788 708.75 91.788V87.788ZM692 67.538C692 60.8643 693.73 55.8117 696.58 52.4605C699.41 49.1474 703.51 47.288 708.75 47.288V43.288C702.49 43.288 697.22 45.5536 693.54 49.8655C689.9 54.1393 688 60.2117 688 67.538H692ZM708.75 47.288C713.99 47.288 718.09 49.1474 720.92 52.4605C723.77 55.8117 725.5 60.8643 725.5 67.538H729.5C729.5 60.2117 727.6 54.1393 723.96 49.8655C720.28 45.5536 715.01 43.288 708.75 43.288V47.288ZM725.5 67.538C725.5 74.2117 723.77 79.2643 720.92 82.6155C718.09 85.9286 713.99 87.788 708.75 87.788V91.788C715.01 91.788 720.28 89.5224 723.96 85.2105C727.6 80.9367 729.5 74.8643 729.5 67.538H725.5ZM775.25 51.788L773.25 51.6606L772.79 58.8929L776.9 52.9211L775.25 51.788ZM794.75 31.538L795.14 33.4992L795.15 33.4983L794.75 31.538ZM817 27.038L817.396 28.9983L817.43 28.9915L817.463 28.9836L817 27.038ZM834.75 8.28801L836.731 8.5644L836.737 8.51687L836.742 8.46908L834.75 8.28801ZM835 5.53801L836.992 5.71908L837.159 3.88237L835.342 3.56739L835 5.53801ZM816.25 2.28801L816.592 0.31739L814.76 0L814.31 1.80294L816.25 2.28801ZM815.5 5.28801L813.56 4.80294L813.55 4.84911L813.54 4.89578L815.5 5.28801ZM810.75 9.78801L810.39 7.82027L810.35 7.82775L810.31 7.83694L810.75 9.78801ZM793 13.788L793.42 15.7424L793.43 15.7407L793.44 15.7391L793 13.788ZM802.25 37.038C789.45 37.038 779.53 42.0294 773.6 50.6549L776.9 52.9211C781.97 45.5466 790.55 41.038 802.25 41.038V37.038ZM777.25 51.9154C777.61 46.2875 778.96 42.4398 781.58 39.6596C784.23 36.8472 788.44 34.839 795.14 33.4992L794.36 29.5768C787.31 30.987 782.14 33.2288 778.67 36.9164C775.16 40.6362 773.64 45.5385 773.25 51.6606L777.25 51.9154ZM795.15 33.4983L817.396 28.9983L816.604 25.0777L794.35 29.5777L795.15 33.4983ZM817.463 28.9836C822.944 27.6786 827.399 25.5406 830.686 22.1486C833.988 18.7411 835.938 14.2488 836.731 8.5644L832.769 8.01162C832.062 13.0772 830.387 16.7099 827.814 19.3649C825.226 22.0354 821.556 23.8974 816.537 25.0924L817.463 28.9836ZM836.742 8.46908L836.992 5.71908L833.008 5.35694L832.758 8.10694L836.742 8.46908ZM835.342 3.56739L816.592 0.31739L815.908 4.25863L834.658 7.50863L835.342 3.56739ZM814.31 1.80294L813.56 4.80294L817.44 5.77308L818.19 2.77308L814.31 1.80294ZM813.54 4.89578C813.35 5.83627 813.01 6.4366 812.58 6.84523C812.15 7.2589 811.48 7.62189 810.39 7.82027L811.11 11.7557C812.77 11.4541 814.22 10.8171 815.354 9.73079C816.491 8.63942 817.149 7.23975 817.461 5.68024L813.54 4.89578ZM810.31 7.83694L792.56 11.8369L793.44 15.7391L811.19 11.7391L810.31 7.83694ZM792.58 11.8337C780.68 14.4187 771.7 19.9026 765.73 28.4904C759.79 37.0346 757 48.4227 757 62.538H761C761 48.9033 763.71 38.4164 769.02 30.7731C774.3 23.1734 782.32 18.1573 793.42 15.7424L792.58 11.8337ZM757 62.538C757 76.4928 760.65 87.9493 767.62 95.9457C774.62 103.978 784.76 108.288 797.25 108.288V104.288C785.74 104.288 776.76 100.348 770.63 93.3178C764.48 86.2517 761 75.8332 761 62.538H757ZM797.25 108.288C808.92 108.288 818.928 104.587 826.038 98.0754C833.162 91.5513 837.25 82.3182 837.25 71.538H833.25C833.25 81.2578 829.588 89.3997 823.337 95.1256C817.072 100.864 808.08 104.288 797.25 104.288V108.288ZM837.25 71.538C837.25 61.5507 833.693 52.8986 827.469 46.7412C821.246 40.5846 812.47 37.038 802.25 37.038V41.038C811.53 41.038 819.254 44.2414 824.656 49.5848C830.057 54.9274 833.25 62.5253 833.25 71.538H837.25ZM797.25 87.788C792.48 87.788 788.65 86.1517 786.01 83.3781C783.36 80.5957 781.75 76.4964 781.75 71.288H777.75C777.75 77.3296 779.64 82.4803 783.11 86.1354C786.6 89.7993 791.52 91.788 797.25 91.788V87.788ZM781.75 71.288C781.75 65.9271 783.32 61.9105 785.9 59.243C788.49 56.582 792.3 55.038 797.25 55.038V51.038C791.45 51.038 786.51 52.869 783.03 56.458C779.56 60.0405 777.75 65.1489 777.75 71.288H781.75ZM797.25 55.038C802.2 55.038 805.94 56.5794 808.45 59.252C810.98 61.9404 812.5 66.0214 812.5 71.538H816.5C816.5 65.3046 814.77 60.1356 811.36 56.5115C807.94 52.8716 803.05 51.038 797.25 51.038V55.038ZM812.5 71.538C812.5 76.7842 810.99 80.8114 808.45 83.5115C805.92 86.1964 802.18 87.788 797.25 87.788V91.788C803.07 91.788 807.95 89.8796 811.36 86.252C814.76 82.6396 816.5 77.5418 816.5 71.538H812.5ZM883 108.288C895.198 108.288 905.541 104.257 912.842 97.0556C920.146 89.8514 924.25 79.6271 924.25 67.538H920.25C920.25 78.6989 916.479 87.8496 910.033 94.2079C903.584 100.569 894.302 104.288 883 104.288V108.288ZM924.25 67.538C924.25 55.3375 920.217 45.108 912.936 37.9266C905.657 30.7479 895.309 26.788 883 26.788V30.788C894.441 30.788 903.718 34.4531 910.127 40.7744C916.533 47.093 920.25 56.2385 920.25 67.538H924.25ZM883 26.788C870.802 26.788 860.459 30.8186 853.158 38.0204C845.854 45.2246 841.75 55.4489 841.75 67.538H845.75C845.75 56.3771 849.521 47.2264 855.967 40.8681C862.416 34.5074 871.698 30.788 883 30.788V26.788ZM841.75 67.538C841.75 79.7385 845.783 89.968 853.064 97.1494C860.343 104.328 870.691 108.288 883 108.288V104.288C871.559 104.288 862.282 100.623 855.873 94.3016C849.467 87.983 845.75 78.8375 845.75 67.538H841.75ZM883 87.788C877.761 87.788 873.659 85.9286 870.835 82.6155C867.978 79.2643 866.25 74.2117 866.25 67.538H862.25C862.25 74.8643 864.147 80.9367 867.79 85.2105C871.466 89.5224 876.739 91.788 883 91.788V87.788ZM866.25 67.538C866.25 60.8643 867.978 55.8117 870.835 52.4605C873.659 49.1474 877.761 47.288 883 47.288V43.288C876.739 43.288 871.466 45.5536 867.79 49.8655C864.147 54.1393 862.25 60.2117 862.25 67.538H866.25ZM883 47.288C888.239 47.288 892.341 49.1474 895.165 52.4605C898.022 55.8117 899.75 60.8643 899.75 67.538H903.75C903.75 60.2117 901.853 54.1393 898.21 49.8655C894.534 45.5536 889.261 43.288 883 43.288V47.288ZM899.75 67.538C899.75 74.2117 898.022 79.2643 895.165 82.6155C892.341 85.9286 888.239 87.788 883 87.788V91.788C889.261 91.788 894.534 89.5224 898.21 85.2105C901.853 80.9367 903.75 74.8643 903.75 67.538H899.75ZM978 30.038V28.038H976V30.038H978ZM978 61.038V63.038H980V61.038H978ZM950.5 30.038H952.5V28.038H950.5V30.038ZM930.5 30.038V28.038H928.5V30.038H930.5ZM978 79.038H980V77.038H978V79.038ZM978 105.038H976V107.038H978V105.038ZM998 105.038V107.038H1000V105.038H998ZM998 30.038H1000V28.038H998V30.038ZM976 30.038V61.038H980V30.038H976ZM978 59.038H963.25V63.038H978V59.038ZM963.25 59.038C958.577 59.038 956.004 58.3353 954.574 57.1733C953.267 56.1114 952.5 54.304 952.5 50.788H948.5C948.5 54.772 949.358 58.0896 952.051 60.2777C954.621 62.3657 958.423 63.038 963.25 63.038V59.038ZM952.5 50.788V30.038H948.5V50.788H952.5ZM950.5 28.038H930.5V32.038H950.5V28.038ZM928.5 30.038V50.788H932.5V30.038H928.5ZM928.5 50.788C928.5 60.034 931.755 67.6802 937.878 72.9869C943.965 78.2628 952.668 81.038 963.25 81.038V77.038C953.332 77.038 945.66 74.4382 940.497 69.9641C935.37 65.5208 932.5 59.042 932.5 50.788H928.5ZM963.25 81.038H978V77.038H963.25V81.038ZM976 79.038V105.038H980V79.038H976ZM978 107.038H998V103.038H978V107.038ZM1000 105.038V30.038H996V105.038H1000ZM998 28.038H978V32.038H998V28.038ZM1068.75 30.038V28.038H1067.68L1067.08 28.9307L1068.75 30.038ZM1038 76.288H1036V82.9084L1039.67 77.3953L1038 76.288ZM1038 30.038H1040V28.038H1038V30.038ZM1018.5 30.038V28.038H1016.5V30.038H1018.5ZM1018.5 105.038H1016.5V107.038H1018.5V105.038ZM1038.25 105.038V107.038H1039.32L1039.92 106.145L1038.25 105.038ZM1069 58.788H1071V52.1676L1067.33 57.6807L1069 58.788ZM1069 105.038H1067V107.038H1069V105.038ZM1088.5 105.038V107.038H1090.5V105.038H1088.5ZM1088.5 30.038H1090.5V28.038H1088.5V30.038ZM1067.08 28.9307L1036.33 75.1807L1039.67 77.3953L1070.42 31.1453L1067.08 28.9307ZM1040 76.288V30.038H1036V76.288H1040ZM1038 28.038H1018.5V32.038H1038V28.038ZM1016.5 30.038V105.038H1020.5V30.038H1016.5ZM1018.5 107.038H1038.25V103.038H1018.5V107.038ZM1039.92 106.145L1070.67 59.8953L1067.33 57.6807L1036.58 103.931L1039.92 106.145ZM1067 58.788V105.038H1071V58.788H1067ZM1069 107.038H1088.5V103.038H1069V107.038ZM1090.5 105.038V30.038H1086.5V105.038H1090.5ZM1088.5 28.038H1068.75V32.038H1088.5V28.038ZM1169.25 4.28801L1171.24 4.49958L1171.45 2.55878L1169.51 2.30499L1169.25 4.28801ZM1154 2.28801L1154.26 0.30499L1152.37 0.0574799L1152.03 1.93024L1154 2.28801ZM1134 2.28801L1135.97 1.93024L1135.63 0.0574799L1133.74 0.30499L1134 2.28801ZM1118.75 4.28801L1118.49 2.30499L1116.55 2.55878L1116.76 4.49958L1118.75 4.28801ZM1159.25 30.038V28.038H1158.18L1157.58 28.9307L1159.25 30.038ZM1128.5 76.288H1126.5V82.9084L1130.17 77.3953L1128.5 76.288ZM1128.5 30.038H1130.5V28.038H1128.5V30.038ZM1109 30.038V28.038H1107V30.038H1109ZM1109 105.038H1107V107.038H1109V105.038ZM1128.75 105.038V107.038H1129.82L1130.42 106.145L1128.75 105.038ZM1159.5 58.788H1161.5V52.1676L1157.83 57.6807L1159.5 58.788ZM1159.5 105.038H1157.5V107.038H1159.5V105.038ZM1179 105.038V107.038H1181V105.038H1179ZM1179 30.038H1181V28.038H1179V30.038ZM1144 25.038C1151.55 25.038 1158.01 23.2151 1162.78 19.6762C1167.6 16.1089 1170.56 10.9045 1171.24 4.49958L1167.26 4.07644C1166.69 9.42149 1164.28 13.5921 1160.4 16.4623C1156.49 19.3609 1150.95 21.038 1144 21.038V25.038ZM1169.51 2.30499L1154.26 0.30499L1153.74 4.27103L1168.99 6.27103L1169.51 2.30499ZM1152.03 1.93024C1151.61 4.25685 1150.59 5.86399 1149.26 6.90287C1147.93 7.95342 1146.13 8.53801 1144 8.53801V12.538C1146.87 12.538 1149.57 11.7476 1151.74 10.0482C1153.91 8.33703 1155.39 5.81917 1155.97 2.64578L1152.03 1.93024ZM1144 8.53801C1141.87 8.53801 1140.07 7.95342 1138.74 6.90287C1137.41 5.86399 1136.39 4.25685 1135.97 1.93024L1132.03 2.64578C1132.61 5.81917 1134.09 8.33703 1136.26 10.0482C1138.43 11.7476 1141.13 12.538 1144 12.538V8.53801ZM1133.74 0.30499L1118.49 2.30499L1119.01 6.27103L1134.26 4.27103L1133.74 0.30499ZM1116.76 4.49958C1117.44 10.9045 1120.4 16.1089 1125.22 19.6762C1129.99 23.2151 1136.45 25.038 1144 25.038V21.038C1137.05 21.038 1131.51 19.3609 1127.6 16.4623C1123.72 13.5921 1121.31 9.42149 1120.74 4.07644L1116.76 4.49958ZM1157.58 28.9307L1126.83 75.1807L1130.17 77.3953L1160.92 31.1453L1157.58 28.9307ZM1130.5 76.288V30.038H1126.5V76.288H1130.5ZM1128.5 28.038H1109V32.038H1128.5V28.038ZM1107 30.038V105.038H1111V30.038H1107ZM1109 107.038H1128.75V103.038H1109V107.038ZM1130.42 106.145L1161.17 59.8953L1157.83 57.6807L1127.08 103.931L1130.42 106.145ZM1157.5 58.788V105.038H1161.5V58.788H1157.5ZM1159.5 107.038H1179V103.038H1159.5V107.038ZM1181 105.038V30.038H1177V105.038H1181ZM1179 28.038H1159.25V32.038H1179V28.038ZM1309 30.038H1311V28.038H1309V30.038ZM1239.5 30.038V28.038H1237.5V30.038H1239.5ZM1239.5 105.038H1237.5V107.038H1239.5V105.038ZM1259.5 105.038V107.038H1261.5V105.038H1259.5ZM1259.5 48.038V46.038H1257.5V48.038H1259.5ZM1289 48.038H1291V46.038H1289V48.038ZM1289 105.038H1287V107.038H1289V105.038ZM1309 105.038V107.038H1311V105.038H1309ZM1309 28.038H1239.5V32.038H1309V28.038ZM1237.5 30.038V105.038H1241.5V30.038H1237.5ZM1239.5 107.038H1259.5V103.038H1239.5V107.038ZM1261.5 105.038V48.038H1257.5V105.038H1261.5ZM1259.5 50.038H1289V46.038H1259.5V50.038ZM1287 48.038V105.038H1291V48.038H1287ZM1289 107.038H1309V103.038H1289V107.038ZM1311 105.038V30.038H1307V105.038H1311ZM1348.5 40.538L1346.51 40.7276L1346.99 45.7929L1350.09 41.7549L1348.5 40.538ZM1347.5 30.038L1349.49 29.8484L1349.32 28.038H1347.5V30.038ZM1329.5 30.038V28.038H1327.5V30.038H1329.5ZM1329.5 130.038H1327.5V132.038H1329.5V130.038ZM1349.5 130.038V132.038H1351.5V130.038H1349.5ZM1349.5 96.288L1350.97 94.9339L1347.5 91.1601V96.288H1349.5ZM1372.75 26.788C1361.88 26.788 1353.04 31.3254 1346.91 39.3211L1350.09 41.7549C1355.46 34.7506 1363.12 30.788 1372.75 30.788V26.788ZM1350.49 40.3484L1349.49 29.8484L1345.51 30.2276L1346.51 40.7276L1350.49 40.3484ZM1347.5 28.038H1329.5V32.038H1347.5V28.038ZM1327.5 30.038V130.038H1331.5V30.038H1327.5ZM1329.5 132.038H1349.5V128.038H1329.5V132.038ZM1351.5 130.038V96.288H1347.5V130.038H1351.5ZM1348.03 97.6421C1354.15 104.295 1362.43 108.288 1372.75 108.288V104.288C1363.57 104.288 1356.35 100.781 1350.97 94.9339L1348.03 97.6421ZM1372.75 108.288C1382.84 108.288 1391.41 104.153 1397.41 96.9086C1403.4 89.6945 1406.75 79.5232 1406.75 67.538H1402.75C1402.75 78.8028 1399.6 88.0065 1394.34 94.3549C1389.09 100.673 1381.66 104.288 1372.75 104.288V108.288ZM1406.75 67.538C1406.75 55.4508 1403.53 45.2738 1397.61 38.0786C1391.64 30.8442 1383.07 26.788 1372.75 26.788V30.788C1381.93 30.788 1389.36 34.3568 1394.52 40.6224C1399.72 46.9272 1402.75 56.1252 1402.75 67.538H1406.75ZM1366.5 87.788C1361.43 87.788 1357.59 85.9003 1354.98 82.5808C1352.31 79.2 1350.75 74.1275 1350.75 67.538H1346.75C1346.75 74.6985 1348.44 80.751 1351.84 85.0577C1355.28 89.4257 1360.32 91.788 1366.5 91.788V87.788ZM1350.75 67.538C1350.75 60.9485 1352.31 55.876 1354.98 52.4952C1357.59 49.1757 1361.43 47.288 1366.5 47.288V43.288C1360.32 43.288 1355.28 45.6503 1351.84 50.0183C1348.44 54.325 1346.75 60.3775 1346.75 67.538H1350.75ZM1366.5 47.288C1371.57 47.288 1375.48 49.1795 1378.16 52.5108C1380.89 55.8951 1382.5 60.9648 1382.5 67.538H1386.5C1386.5 60.3612 1384.74 54.3059 1381.28 50.0027C1377.77 45.6465 1372.68 43.288 1366.5 43.288V47.288ZM1382.5 67.538C1382.5 74.1112 1380.89 79.1809 1378.16 82.5652C1375.48 85.8965 1371.57 87.788 1366.5 87.788V91.788C1372.68 91.788 1377.77 89.4295 1381.28 85.0733C1384.74 80.7701 1386.5 74.7148 1386.5 67.538H1382.5ZM1454 108.288C1466.2 108.288 1476.54 104.257 1483.84 97.0556C1491.15 89.8514 1495.25 79.6271 1495.25 67.538H1491.25C1491.25 78.6989 1487.48 87.8496 1481.03 94.2079C1474.58 100.569 1465.3 104.288 1454 104.288V108.288ZM1495.25 67.538C1495.25 55.3375 1491.22 45.108 1483.94 37.9266C1476.66 30.7479 1466.31 26.788 1454 26.788V30.788C1465.44 30.788 1474.72 34.4531 1481.13 40.7744C1487.53 47.093 1491.25 56.2385 1491.25 67.538H1495.25ZM1454 26.788C1441.8 26.788 1431.46 30.8186 1424.16 38.0204C1416.85 45.2246 1412.75 55.4489 1412.75 67.538H1416.75C1416.75 56.3771 1420.52 47.2264 1426.97 40.8681C1433.42 34.5074 1442.7 30.788 1454 30.788V26.788ZM1412.75 67.538C1412.75 79.7385 1416.78 89.968 1424.06 97.1494C1431.34 104.328 1441.69 108.288 1454 108.288V104.288C1442.56 104.288 1433.28 100.623 1426.87 94.3016C1420.47 87.983 1416.75 78.8375 1416.75 67.538H1412.75ZM1454 87.788C1448.76 87.788 1444.66 85.9286 1441.83 82.6155C1438.98 79.2643 1437.25 74.2117 1437.25 67.538H1433.25C1433.25 74.8643 1435.15 80.9367 1438.79 85.2105C1442.47 89.5224 1447.74 91.788 1454 91.788V87.788ZM1437.25 67.538C1437.25 60.8643 1438.98 55.8117 1441.83 52.4605C1444.66 49.1474 1448.76 47.288 1454 47.288V43.288C1447.74 43.288 1442.47 45.5536 1438.79 49.8655C1435.15 54.1393 1433.25 60.2117 1433.25 67.538H1437.25ZM1454 47.288C1459.24 47.288 1463.34 49.1474 1466.17 52.4605C1469.02 55.8117 1470.75 60.8643 1470.75 67.538H1474.75C1474.75 60.2117 1472.85 54.1393 1469.21 49.8655C1465.53 45.5536 1460.26 43.288 1454 43.288V47.288ZM1470.75 67.538C1470.75 74.2117 1469.02 79.2643 1466.17 82.6155C1463.34 85.9286 1459.24 87.788 1454 87.788V91.788C1460.26 91.788 1465.53 89.5224 1469.21 85.2105C1472.85 80.9367 1474.75 74.8643 1474.75 67.538H1470.75ZM1576.75 83.788L1578.67 84.3596L1579.24 82.4507L1577.33 81.8737L1576.75 83.788ZM1557.75 78.038L1558.33 76.1237L1556.52 75.5769L1555.87 77.3495L1557.75 78.038ZM1557.75 57.038L1555.87 57.7265L1556.52 59.4991L1558.33 58.9523L1557.75 57.038ZM1576.75 51.288L1577.33 53.2023L1579.24 52.6253L1578.67 50.7164L1576.75 51.288ZM1542 108.288C1559.89 108.288 1574.1 99.6716 1578.67 84.3596L1574.83 83.2164C1570.9 96.4044 1558.61 104.288 1542 104.288V108.288ZM1577.33 81.8737L1558.33 76.1237L1557.17 79.9523L1576.17 85.7023L1577.33 81.8737ZM1555.87 77.3495C1554.6 80.8097 1552.75 83.3971 1550.43 85.121C1548.13 86.8369 1545.24 87.788 1541.75 87.788V91.788C1546.01 91.788 1549.75 90.6141 1552.82 88.33C1555.88 86.0539 1558.15 82.7663 1559.63 78.7265L1555.87 77.3495ZM1541.75 87.788C1536.81 87.788 1532.9 85.9035 1530.18 82.5576C1527.42 79.1664 1525.75 74.0947 1525.75 67.538H1521.75C1521.75 74.7313 1523.58 80.7846 1527.07 85.0809C1530.6 89.4225 1535.69 91.788 1541.75 91.788V87.788ZM1525.75 67.538C1525.75 60.9813 1527.42 55.9096 1530.18 52.5184C1532.9 49.1725 1536.81 47.288 1541.75 47.288V43.288C1535.69 43.288 1530.6 45.6535 1527.07 49.9951C1523.58 54.2914 1521.75 60.3447 1521.75 67.538H1525.75ZM1541.75 47.288C1545.24 47.288 1548.13 48.2391 1550.43 49.955C1552.75 51.6789 1554.6 54.2663 1555.87 57.7265L1559.63 56.3495C1558.15 52.3097 1555.88 49.0221 1552.82 46.746C1549.75 44.4619 1546.01 43.288 1541.75 43.288V47.288ZM1558.33 58.9523L1577.33 53.2023L1576.17 49.3737L1557.17 55.1237L1558.33 58.9523ZM1578.67 50.7164C1574.1 35.4044 1559.89 26.788 1542 26.788V30.788C1558.61 30.788 1570.9 38.6716 1574.83 51.8596L1578.67 50.7164ZM1542 26.788C1529.92 26.788 1519.7 30.8232 1512.49 38.03C1505.28 45.2368 1501.25 55.4585 1501.25 67.538H1505.25C1505.25 56.3675 1508.97 47.2142 1515.32 40.8585C1521.68 34.5028 1530.83 30.788 1542 30.788V26.788ZM1501.25 67.538C1501.25 79.6175 1505.28 89.8391 1512.49 97.046C1519.7 104.253 1529.92 108.288 1542 108.288V104.288C1530.83 104.288 1521.68 100.573 1515.32 94.2175C1508.97 87.8619 1505.25 78.7085 1505.25 67.538H1501.25ZM1652.5 30.038H1654.5V28.038H1652.5V30.038ZM1580.5 30.038V28.038H1578.5V30.038H1580.5ZM1580.5 48.038H1578.5V50.038H1580.5V48.038ZM1606.5 48.038H1608.5V46.038H1606.5V48.038ZM1606.5 105.038H1604.5V107.038H1606.5V105.038ZM1626.5 105.038V107.038H1628.5V105.038H1626.5ZM1626.5 48.038V46.038H1624.5V48.038H1626.5ZM1652.5 48.038V50.038H1654.5V48.038H1652.5ZM1652.5 28.038H1580.5V32.038H1652.5V28.038ZM1578.5 30.038V48.038H1582.5V30.038H1578.5ZM1580.5 50.038H1606.5V46.038H1580.5V50.038ZM1604.5 48.038V105.038H1608.5V48.038H1604.5ZM1606.5 107.038H1626.5V103.038H1606.5V107.038ZM1628.5 105.038V48.038H1624.5V105.038H1628.5ZM1626.5 50.038H1652.5V46.038H1626.5V50.038ZM1654.5 48.038V30.038H1650.5V48.038H1654.5ZM1665.75 20.538H1663.75V22.538H1665.75V20.538ZM1687.25 20.538V22.538H1689.25V20.538H1687.25ZM1687.25 3.53801H1689.25V1.53801H1687.25V3.53801ZM1665.75 3.53801V1.53801H1663.75V3.53801H1665.75ZM1666.5 105.038H1664.5V107.038H1666.5V105.038ZM1686.5 105.038V107.038H1688.5V105.038H1686.5ZM1686.5 30.038H1688.5V28.038H1686.5V30.038ZM1666.5 30.038V28.038H1664.5V30.038H1666.5ZM1665.75 22.538H1687.25V18.538H1665.75V22.538ZM1689.25 20.538V3.53801H1685.25V20.538H1689.25ZM1687.25 1.53801H1665.75V5.53801H1687.25V1.53801ZM1663.75 3.53801V20.538H1667.75V3.53801H1663.75ZM1666.5 107.038H1686.5V103.038H1666.5V107.038ZM1688.5 105.038V30.038H1684.5V105.038H1688.5ZM1686.5 28.038H1666.5V32.038H1686.5V28.038ZM1664.5 30.038V105.038H1668.5V30.038H1664.5ZM1727.25 40.538L1725.26 40.7276L1725.74 45.7929L1728.84 41.7549L1727.25 40.538ZM1726.25 30.038L1728.24 29.8484L1728.07 28.038H1726.25V30.038ZM1708.25 30.038V28.038H1706.25V30.038H1708.25ZM1708.25 130.038H1706.25V132.038H1708.25V130.038ZM1728.25 130.038V132.038H1730.25V130.038H1728.25ZM1728.25 96.288L1729.72 94.9339L1726.25 91.1601V96.288H1728.25ZM1751.5 26.788C1740.63 26.788 1731.79 31.3254 1725.66 39.3211L1728.84 41.7549C1734.21 34.7506 1741.87 30.788 1751.5 30.788V26.788ZM1729.24 40.3484L1728.24 29.8484L1724.26 30.2276L1725.26 40.7276L1729.24 40.3484ZM1726.25 28.038H1708.25V32.038H1726.25V28.038ZM1706.25 30.038V130.038H1710.25V30.038H1706.25ZM1708.25 132.038H1728.25V128.038H1708.25V132.038ZM1730.25 130.038V96.288H1726.25V130.038H1730.25ZM1726.78 97.6421C1732.9 104.295 1741.18 108.288 1751.5 108.288V104.288C1742.32 104.288 1735.1 100.781 1729.72 94.9339L1726.78 97.6421ZM1751.5 108.288C1761.59 108.288 1770.15 104.153 1776.16 96.9086C1782.15 89.6945 1785.5 79.5232 1785.5 67.538H1781.5C1781.5 78.8028 1778.35 88.0065 1773.09 94.3549C1767.85 100.673 1760.41 104.288 1751.5 104.288V108.288ZM1785.5 67.538C1785.5 55.4508 1782.29 45.2738 1776.36 38.0786C1770.39 30.8442 1761.82 26.788 1751.5 26.788V30.788C1760.68 30.788 1768.11 34.3568 1773.27 40.6224C1778.46 46.9272 1781.5 56.1252 1781.5 67.538H1785.5ZM1745.25 87.788C1740.18 87.788 1736.34 85.9003 1733.73 82.5808C1731.06 79.2 1729.5 74.1275 1729.5 67.538H1725.5C1725.5 74.6985 1727.19 80.751 1730.59 85.0577C1734.03 89.4257 1739.07 91.788 1745.25 91.788V87.788ZM1729.5 67.538C1729.5 60.9485 1731.06 55.876 1733.73 52.4952C1736.34 49.1757 1740.18 47.288 1745.25 47.288V43.288C1739.07 43.288 1734.03 45.6503 1730.59 50.0183C1727.19 54.325 1725.5 60.3775 1725.5 67.538H1729.5ZM1745.25 47.288C1750.32 47.288 1754.23 49.1795 1756.91 52.5108C1759.63 55.8951 1761.25 60.9648 1761.25 67.538H1765.25C1765.25 60.3612 1763.49 54.3059 1760.03 50.0027C1756.52 45.6465 1751.43 43.288 1745.25 43.288V47.288ZM1761.25 67.538C1761.25 74.1112 1759.63 79.1809 1756.91 82.5652C1754.23 85.8965 1750.32 87.788 1745.25 87.788V91.788C1751.43 91.788 1756.52 89.4295 1760.03 85.0733C1763.49 80.7701 1765.25 74.7148 1765.25 67.538H1761.25ZM1877.25 71.788H1875.25V73.788H1877.25V71.788ZM1972.75 71.788V73.788H1974.75V71.788H1972.75ZM1972.75 53.288H1974.75V51.288H1972.75V53.288ZM1877.25 53.288V51.288H1875.25V53.288H1877.25ZM1877.25 73.788H1972.75V69.788H1877.25V73.788ZM1974.75 71.788V53.288H1970.75V71.788H1974.75ZM1972.75 51.288H1877.25V55.288H1972.75V51.288ZM1875.25 53.288V71.788H1879.25V53.288H1875.25ZM2086.75 73.788V71.788H2084.32L2084.79 74.171L2086.75 73.788ZM2113.5 73.788V75.788H2115.5V73.788H2113.5ZM2113.5 59.788H2115.5V57.788H2113.5V59.788ZM2087 59.788L2085.06 59.3153L2084.46 61.788H2087V59.788ZM2122.25 56.538L2120.4 57.3027L2121.13 59.068L2122.93 58.4191L2122.25 56.538ZM2140.25 50.038L2140.93 51.9191L2142.81 51.2414L2142.13 49.3631L2140.25 50.038ZM2140.25 85.038L2142.13 85.7129L2142.81 83.8346L2140.93 83.1569L2140.25 85.038ZM2122.25 78.538L2122.93 76.6569L2121.13 76.008L2120.4 77.7733L2122.25 78.538ZM2105 88.288C2100.58 88.288 2097.01 86.8825 2094.32 84.4093C2091.61 81.9172 2089.65 78.2125 2088.71 73.405L2084.79 74.171C2085.85 79.6135 2088.14 84.1588 2091.61 87.3542C2095.11 90.5685 2099.67 92.288 2105 92.288V88.288ZM2086.75 75.788H2113.5V71.788H2086.75V75.788ZM2115.5 73.788V59.788H2111.5V73.788H2115.5ZM2113.5 57.788H2087V61.788H2113.5V57.788ZM2088.94 60.2607C2089.99 55.9718 2091.98 52.6197 2094.67 50.3454C2097.34 48.0818 2100.81 46.788 2105 46.788V42.788C2099.94 42.788 2095.54 44.3692 2092.08 47.2931C2088.64 50.2063 2086.26 54.3542 2085.06 59.3153L2088.94 60.2607ZM2105 46.788C2112.38 46.788 2117.69 50.7379 2120.4 57.3027L2124.1 55.7733C2120.81 47.8381 2114.12 42.788 2105 42.788V46.788ZM2122.93 58.4191L2140.93 51.9191L2139.57 48.1569L2121.57 54.6569L2122.93 58.4191ZM2142.13 49.3631C2137.03 35.1189 2122.86 26.788 2105.25 26.788V30.788C2121.64 30.788 2133.97 38.4571 2138.37 50.7129L2142.13 49.3631ZM2105.25 26.788C2093.17 26.788 2082.95 30.8232 2075.74 38.03C2068.53 45.2368 2064.5 55.4585 2064.5 67.538H2068.5C2068.5 56.3675 2072.22 47.2142 2078.57 40.8585C2084.93 34.5028 2094.08 30.788 2105.25 30.788V26.788ZM2064.5 67.538C2064.5 79.6175 2068.53 89.8391 2075.74 97.046C2082.95 104.253 2093.17 108.288 2105.25 108.288V104.288C2094.08 104.288 2084.93 100.573 2078.57 94.2175C2072.22 87.8619 2068.5 78.7085 2068.5 67.538H2064.5ZM2105.25 108.288C2122.86 108.288 2137.03 99.9571 2142.13 85.7129L2138.37 84.3631C2133.97 96.6189 2121.64 104.288 2105.25 104.288V108.288ZM2140.93 83.1569L2122.93 76.6569L2121.57 80.4191L2139.57 86.9191L2140.93 83.1569ZM2120.4 77.7733C2117.69 84.3381 2112.38 88.288 2105 88.288V92.288C2114.12 92.288 2120.81 87.2379 2124.1 79.3027L2120.4 77.7733ZM2222.75 87.038H2220.75V89.038H2222.75V87.038ZM2222.75 30.038H2224.75V28.038H2222.75V30.038ZM2157.25 30.038V28.038H2155.25V30.038H2157.25ZM2155.75 87.038V89.038H2157.43L2157.72 87.3807L2155.75 87.038ZM2146.5 87.038V85.038H2144.5V87.038H2146.5ZM2146.5 122.538H2144.5V124.538H2146.5V122.538ZM2165.75 122.538V124.538H2167.75V122.538H2165.75ZM2165.75 105.038V103.038H2163.75V105.038H2165.75ZM2213.5 105.038H2215.5V103.038H2213.5V105.038ZM2213.5 122.538H2211.5V124.538H2213.5V122.538ZM2232.75 122.538V124.538H2234.75V122.538H2232.75ZM2232.75 87.038H2234.75V85.038H2232.75V87.038ZM2175.25 87.538L2173.27 87.2552L2172.94 89.538H2175.25V87.538ZM2176.75 47.538V45.538H2174.75V47.538H2176.75ZM2203 47.538H2205V45.538H2203V47.538ZM2203 87.538V89.538H2205V87.538H2203ZM2224.75 87.038V30.038H2220.75V87.038H2224.75ZM2222.75 28.038H2157.25V32.038H2222.75V28.038ZM2155.25 30.038V61.288H2159.25V30.038H2155.25ZM2155.25 61.288C2155.25 73.0079 2154.75 81.1192 2153.78 86.6953L2157.72 87.3807C2158.75 81.4568 2159.25 73.0681 2159.25 61.288H2155.25ZM2155.75 85.038H2146.5V89.038H2155.75V85.038ZM2144.5 87.038V122.538H2148.5V87.038H2144.5ZM2146.5 124.538H2165.75V120.538H2146.5V124.538ZM2167.75 122.538V105.038H2163.75V122.538H2167.75ZM2165.75 107.038H2213.5V103.038H2165.75V107.038ZM2211.5 105.038V122.538H2215.5V105.038H2211.5ZM2213.5 124.538H2232.75V120.538H2213.5V124.538ZM2234.75 122.538V87.038H2230.75V122.538H2234.75ZM2232.75 85.038H2222.75V89.038H2232.75V85.038ZM2177.23 87.8208C2178.25 80.6967 2178.75 71.8459 2178.75 62.038H2174.75C2174.75 71.7301 2174.25 80.3793 2173.27 87.2552L2177.23 87.8208ZM2178.75 62.038V47.538H2174.75V62.038H2178.75ZM2176.75 49.538H2203V45.538H2176.75V49.538ZM2201 47.538V87.538H2205V47.538H2201ZM2203 85.538H2175.25V89.538H2203V85.538ZM2297.5 30.038V28.038H2296.43L2295.83 28.9307L2297.5 30.038ZM2266.75 76.288H2264.75V82.9084L2268.42 77.3953L2266.75 76.288ZM2266.75 30.038H2268.75V28.038H2266.75V30.038ZM2247.25 30.038V28.038H2245.25V30.038H2247.25ZM2247.25 105.038H2245.25V107.038H2247.25V105.038ZM2267 105.038V107.038H2268.07L2268.67 106.145L2267 105.038ZM2297.75 58.788H2299.75V52.1676L2296.08 57.6807L2297.75 58.788ZM2297.75 105.038H2295.75V107.038H2297.75V105.038ZM2317.25 105.038V107.038H2319.25V105.038H2317.25ZM2317.25 30.038H2319.25V28.038H2317.25V30.038ZM2295.83 28.9307L2265.08 75.1807L2268.42 77.3953L2299.17 31.1453L2295.83 28.9307ZM2268.75 76.288V30.038H2264.75V76.288H2268.75ZM2266.75 28.038H2247.25V32.038H2266.75V28.038ZM2245.25 30.038V105.038H2249.25V30.038H2245.25ZM2247.25 107.038H2267V103.038H2247.25V107.038ZM2268.67 106.145L2299.42 59.8953L2296.08 57.6807L2265.33 103.931L2268.67 106.145ZM2295.75 58.788V105.038H2299.75V58.788H2295.75ZM2297.75 107.038H2317.25V103.038H2297.75V107.038ZM2319.25 105.038V30.038H2315.25V105.038H2319.25ZM2317.25 28.038H2297.5V32.038H2317.25V28.038ZM2387.25 30.038V28.038H2385.25V30.038H2387.25ZM2387.25 57.788V59.788H2389.25V57.788H2387.25ZM2357.75 57.788H2355.75V59.788H2357.75V57.788ZM2357.75 30.038H2359.75V28.038H2357.75V30.038ZM2337.75 30.038V28.038H2335.75V30.038H2337.75ZM2337.75 105.038H2335.75V107.038H2337.75V105.038ZM2357.75 105.038V107.038H2359.75V105.038H2357.75ZM2357.75 75.788V73.788H2355.75V75.788H2357.75ZM2387.25 75.788H2389.25V73.788H2387.25V75.788ZM2387.25 105.038H2385.25V107.038H2387.25V105.038ZM2407.25 105.038V107.038H2409.25V105.038H2407.25ZM2407.25 30.038H2409.25V28.038H2407.25V30.038ZM2385.25 30.038V57.788H2389.25V30.038H2385.25ZM2387.25 55.788H2357.75V59.788H2387.25V55.788ZM2359.75 57.788V30.038H2355.75V57.788H2359.75ZM2357.75 28.038H2337.75V32.038H2357.75V28.038ZM2335.75 30.038V105.038H2339.75V30.038H2335.75ZM2337.75 107.038H2357.75V103.038H2337.75V107.038ZM2359.75 105.038V75.788H2355.75V105.038H2359.75ZM2357.75 77.788H2387.25V73.788H2357.75V77.788ZM2385.25 75.788V105.038H2389.25V75.788H2385.25ZM2387.25 107.038H2407.25V103.038H2387.25V107.038ZM2409.25 105.038V30.038H2405.25V105.038H2409.25ZM2407.25 28.038H2387.25V32.038H2407.25V28.038ZM2478 30.038V28.038H2476.93L2476.33 28.9307L2478 30.038ZM2447.25 76.288H2445.25V82.9084L2448.92 77.3953L2447.25 76.288ZM2447.25 30.038H2449.25V28.038H2447.25V30.038ZM2427.75 30.038V28.038H2425.75V30.038H2427.75ZM2427.75 105.038H2425.75V107.038H2427.75V105.038ZM2447.5 105.038V107.038H2448.57L2449.17 106.145L2447.5 105.038ZM2478.25 58.788H2480.25V52.1676L2476.58 57.6807L2478.25 58.788ZM2478.25 105.038H2476.25V107.038H2478.25V105.038ZM2497.75 105.038V107.038H2499.75V105.038H2497.75ZM2497.75 30.038H2499.75V28.038H2497.75V30.038ZM2476.33 28.9307L2445.58 75.1807L2448.92 77.3953L2479.67 31.1453L2476.33 28.9307ZM2449.25 76.288V30.038H2445.25V76.288H2449.25ZM2447.25 28.038H2427.75V32.038H2447.25V28.038ZM2425.75 30.038V105.038H2429.75V30.038H2425.75ZM2427.75 107.038H2447.5V103.038H2427.75V107.038ZM2449.17 106.145L2479.92 59.8953L2476.58 57.6807L2445.83 103.931L2449.17 106.145ZM2476.25 58.788V105.038H2480.25V58.788H2476.25ZM2478.25 107.038H2497.75V103.038H2478.25V107.038ZM2499.75 105.038V30.038H2495.75V105.038H2499.75ZM2497.75 28.038H2478V32.038H2497.75V28.038ZM2578.5 4.28801L2580.49 4.49958L2580.7 2.55878L2578.76 2.30499L2578.5 4.28801ZM2563.25 2.28801L2563.51 0.30499L2561.62 0.0574799L2561.28 1.93024L2563.25 2.28801ZM2543.25 2.28801L2545.22 1.93024L2544.88 0.0574799L2542.99 0.30499L2543.25 2.28801ZM2528 4.28801L2527.74 2.30499L2525.8 2.55878L2526.01 4.49958L2528 4.28801ZM2568.5 30.038V28.038H2567.43L2566.83 28.9307L2568.5 30.038ZM2537.75 76.288H2535.75V82.9084L2539.42 77.3953L2537.75 76.288ZM2537.75 30.038H2539.75V28.038H2537.75V30.038ZM2518.25 30.038V28.038H2516.25V30.038H2518.25ZM2518.25 105.038H2516.25V107.038H2518.25V105.038ZM2538 105.038V107.038H2539.07L2539.67 106.145L2538 105.038ZM2568.75 58.788H2570.75V52.1676L2567.08 57.6807L2568.75 58.788ZM2568.75 105.038H2566.75V107.038H2568.75V105.038ZM2588.25 105.038V107.038H2590.25V105.038H2588.25ZM2588.25 30.038H2590.25V28.038H2588.25V30.038ZM2553.25 25.038C2560.8 25.038 2567.26 23.2151 2572.03 19.6762C2576.85 16.1089 2579.81 10.9045 2580.49 4.49958L2576.51 4.07644C2575.94 9.42149 2573.53 13.5921 2569.65 16.4623C2565.74 19.3609 2560.2 21.038 2553.25 21.038V25.038ZM2578.76 2.30499L2563.51 0.30499L2562.99 4.27103L2578.24 6.27103L2578.76 2.30499ZM2561.28 1.93024C2560.86 4.25685 2559.84 5.86399 2558.51 6.90287C2557.18 7.95342 2555.38 8.53801 2553.25 8.53801V12.538C2556.12 12.538 2558.82 11.7476 2560.99 10.0482C2563.16 8.33703 2564.64 5.81917 2565.22 2.64578L2561.28 1.93024ZM2553.25 8.53801C2551.12 8.53801 2549.32 7.95342 2547.99 6.90287C2546.66 5.86399 2545.64 4.25685 2545.22 1.93024L2541.28 2.64578C2541.86 5.81917 2543.34 8.33703 2545.51 10.0482C2547.68 11.7476 2550.38 12.538 2553.25 12.538V8.53801ZM2542.99 0.30499L2527.74 2.30499L2528.26 6.27103L2543.51 4.27103L2542.99 0.30499ZM2526.01 4.49958C2526.69 10.9045 2529.65 16.1089 2534.47 19.6762C2539.24 23.2151 2545.7 25.038 2553.25 25.038V21.038C2546.3 21.038 2540.76 19.3609 2536.85 16.4623C2532.97 13.5921 2530.56 9.42149 2529.99 4.07644L2526.01 4.49958ZM2566.83 28.9307L2536.08 75.1807L2539.42 77.3953L2570.17 31.1453L2566.83 28.9307ZM2539.75 76.288V30.038H2535.75V76.288H2539.75ZM2537.75 28.038H2518.25V32.038H2537.75V28.038ZM2516.25 30.038V105.038H2520.25V30.038H2516.25ZM2518.25 107.038H2538V103.038H2518.25V107.038ZM2539.67 106.145L2570.42 59.8953L2567.08 57.6807L2536.33 103.931L2539.67 106.145ZM2566.75 58.788V105.038H2570.75V58.788H2566.75ZM2568.75 107.038H2588.25V103.038H2568.75V107.038ZM2590.25 105.038V30.038H2586.25V105.038H2590.25ZM2588.25 28.038H2568.5V32.038H2588.25V28.038ZM2667.75 40.538L2665.76 40.7276L2666.24 45.7929L2669.34 41.7549L2667.75 40.538ZM2666.75 30.038L2668.74 29.8484L2668.57 28.038H2666.75V30.038ZM2648.75 30.038V28.038H2646.75V30.038H2648.75ZM2648.75 130.038H2646.75V132.038H2648.75V130.038ZM2668.75 130.038V132.038H2670.75V130.038H2668.75ZM2668.75 96.288L2670.22 94.9339L2666.75 91.1601V96.288H2668.75ZM2692 26.788C2681.13 26.788 2672.29 31.3254 2666.16 39.3211L2669.34 41.7549C2674.71 34.7506 2682.37 30.788 2692 30.788V26.788ZM2669.74 40.3484L2668.74 29.8484L2664.76 30.2276L2665.76 40.7276L2669.74 40.3484ZM2666.75 28.038H2648.75V32.038H2666.75V28.038ZM2646.75 30.038V130.038H2650.75V30.038H2646.75ZM2648.75 132.038H2668.75V128.038H2648.75V132.038ZM2670.75 130.038V96.288H2666.75V130.038H2670.75ZM2667.28 97.6421C2673.4 104.295 2681.68 108.288 2692 108.288V104.288C2682.82 104.288 2675.6 100.781 2670.22 94.9339L2667.28 97.6421ZM2692 108.288C2702.09 108.288 2710.66 104.153 2716.66 96.9086C2722.65 89.6945 2726 79.5232 2726 67.538H2722C2722 78.8028 2718.85 88.0065 2713.59 94.3549C2708.34 100.673 2700.91 104.288 2692 104.288V108.288ZM2726 67.538C2726 55.4508 2722.78 45.2738 2716.86 38.0786C2710.89 30.8442 2702.32 26.788 2692 26.788V30.788C2701.18 30.788 2708.61 34.3568 2713.77 40.6224C2718.97 46.9272 2722 56.1252 2722 67.538H2726ZM2685.75 87.788C2680.68 87.788 2676.84 85.9003 2674.23 82.5808C2671.56 79.2 2670 74.1275 2670 67.538H2666C2666 74.6985 2667.69 80.751 2671.09 85.0577C2674.53 89.4257 2679.57 91.788 2685.75 91.788V87.788ZM2670 67.538C2670 60.9485 2671.56 55.876 2674.23 52.4952C2676.84 49.1757 2680.68 47.288 2685.75 47.288V43.288C2679.57 43.288 2674.53 45.6503 2671.09 50.0183C2667.69 54.325 2666 60.3775 2666 67.538H2670ZM2685.75 47.288C2690.82 47.288 2694.73 49.1795 2697.41 52.5108C2700.14 55.8951 2701.75 60.9648 2701.75 67.538H2705.75C2705.75 60.3612 2703.99 54.3059 2700.53 50.0027C2697.02 45.6465 2691.93 43.288 2685.75 43.288V47.288ZM2701.75 67.538C2701.75 74.1112 2700.14 79.1809 2697.41 82.5652C2694.73 85.8965 2690.82 87.788 2685.75 87.788V91.788C2691.93 91.788 2697.02 89.4295 2700.53 85.0733C2703.99 80.7701 2705.75 74.7148 2705.75 67.538H2701.75ZM2773.25 108.288C2785.45 108.288 2795.79 104.257 2803.09 97.0556C2810.4 89.8514 2814.5 79.6271 2814.5 67.538H2810.5C2810.5 78.6989 2806.73 87.8496 2800.28 94.2079C2793.83 100.569 2784.55 104.288 2773.25 104.288V108.288ZM2814.5 67.538C2814.5 55.3375 2810.47 45.108 2803.19 37.9266C2795.91 30.7479 2785.56 26.788 2773.25 26.788V30.788C2784.69 30.788 2793.97 34.4531 2800.38 40.7744C2806.78 47.093 2810.5 56.2385 2810.5 67.538H2814.5ZM2773.25 26.788C2761.05 26.788 2750.71 30.8186 2743.41 38.0204C2736.1 45.2246 2732 55.4489 2732 67.538H2736C2736 56.3771 2739.77 47.2264 2746.22 40.8681C2752.67 34.5074 2761.95 30.788 2773.25 30.788V26.788ZM2732 67.538C2732 79.7385 2736.03 89.968 2743.31 97.1494C2750.59 104.328 2760.94 108.288 2773.25 108.288V104.288C2761.81 104.288 2752.53 100.623 2746.12 94.3016C2739.72 87.983 2736 78.8375 2736 67.538H2732ZM2773.25 87.788C2768.01 87.788 2763.91 85.9286 2761.08 82.6155C2758.23 79.2643 2756.5 74.2117 2756.5 67.538H2752.5C2752.5 74.8643 2754.4 80.9367 2758.04 85.2105C2761.72 89.5224 2766.99 91.788 2773.25 91.788V87.788ZM2756.5 67.538C2756.5 60.8643 2758.23 55.8117 2761.08 52.4605C2763.91 49.1474 2768.01 47.288 2773.25 47.288V43.288C2766.99 43.288 2761.72 45.5536 2758.04 49.8655C2754.4 54.1393 2752.5 60.2117 2752.5 67.538H2756.5ZM2773.25 47.288C2778.49 47.288 2782.59 49.1474 2785.42 52.4605C2788.27 55.8117 2790 60.8643 2790 67.538H2794C2794 60.2117 2792.1 54.1393 2788.46 49.8655C2784.78 45.5536 2779.51 43.288 2773.25 43.288V47.288ZM2790 67.538C2790 74.2117 2788.27 79.2643 2785.42 82.6155C2782.59 85.9286 2778.49 87.788 2773.25 87.788V91.788C2779.51 91.788 2784.78 89.5224 2788.46 85.2105C2792.1 80.9367 2794 74.8643 2794 67.538H2790ZM2839.75 51.788L2837.75 51.6606L2837.29 58.8929L2841.4 52.9211L2839.75 51.788ZM2859.25 31.538L2859.64 33.4992L2859.65 33.4983L2859.25 31.538ZM2881.5 27.038L2881.9 28.9983L2881.93 28.9915L2881.96 28.9836L2881.5 27.038ZM2899.25 8.28801L2901.23 8.5644L2901.24 8.51687V8.46908L2899.25 8.28801ZM2899.5 5.53801L2901.49 5.71908L2901.66 3.88237L2899.84 3.56739L2899.5 5.53801ZM2880.75 2.28801L2881.09 0.31739L2879.26 0L2878.81 1.80294L2880.75 2.28801ZM2880 5.28801L2878.06 4.80294L2878.05 4.84911L2878.04 4.89578L2880 5.28801ZM2875.25 9.78801L2874.89 7.82027L2874.85 7.82775L2874.81 7.83694L2875.25 9.78801ZM2857.5 13.788L2857.92 15.7424L2857.93 15.7407L2857.94 15.7391L2857.5 13.788ZM2866.75 37.038C2853.95 37.038 2844.03 42.0294 2838.1 50.6549L2841.4 52.9211C2846.47 45.5466 2855.05 41.038 2866.75 41.038V37.038ZM2841.75 51.9154C2842.11 46.2875 2843.46 42.4398 2846.08 39.6596C2848.73 36.8472 2852.94 34.839 2859.64 33.4992L2858.86 29.5768C2851.81 30.987 2846.64 33.2288 2843.17 36.9164C2839.66 40.6362 2838.14 45.5385 2837.75 51.6606L2841.75 51.9154ZM2859.65 33.4983L2881.9 28.9983L2881.1 25.0777L2858.85 29.5777L2859.65 33.4983ZM2881.96 28.9836C2887.44 27.6786 2891.9 25.5406 2895.19 22.1486C2898.49 18.7411 2900.44 14.2488 2901.23 8.5644L2897.27 8.01162C2896.56 13.0772 2894.89 16.7099 2892.31 19.3649C2889.73 22.0354 2886.06 23.8974 2881.04 25.0924L2881.96 28.9836ZM2901.24 8.46908L2901.49 5.71908L2897.51 5.35694L2897.26 8.10694L2901.24 8.46908ZM2899.84 3.56739L2881.09 0.31739L2880.41 4.25863L2899.16 7.50863L2899.84 3.56739ZM2878.81 1.80294L2878.06 4.80294L2881.94 5.77308L2882.69 2.77308L2878.81 1.80294ZM2878.04 4.89578C2877.85 5.83627 2877.51 6.4366 2877.08 6.84523C2876.65 7.2589 2875.98 7.62189 2874.89 7.82027L2875.61 11.7557C2877.27 11.4541 2878.72 10.8171 2879.85 9.73079C2880.99 8.63942 2881.65 7.23975 2881.96 5.68024L2878.04 4.89578ZM2874.81 7.83694L2857.06 11.8369L2857.94 15.7391L2875.69 11.7391L2874.81 7.83694ZM2857.08 11.8337C2845.18 14.4187 2836.2 19.9026 2830.23 28.4904C2824.29 37.0346 2821.5 48.4227 2821.5 62.538H2825.5C2825.5 48.9033 2828.21 38.4164 2833.52 30.7731C2838.8 23.1734 2846.82 18.1573 2857.92 15.7424L2857.08 11.8337ZM2821.5 62.538C2821.5 76.4928 2825.15 87.9493 2832.12 95.9457C2839.12 103.978 2849.26 108.288 2861.75 108.288V104.288C2850.24 104.288 2841.26 100.348 2835.13 93.3178C2828.98 86.2517 2825.5 75.8332 2825.5 62.538H2821.5ZM2861.75 108.288C2873.42 108.288 2883.43 104.587 2890.54 98.0754C2897.66 91.5513 2901.75 82.3182 2901.75 71.538H2897.75C2897.75 81.2578 2894.09 89.3997 2887.84 95.1256C2881.57 100.864 2872.58 104.288 2861.75 104.288V108.288ZM2901.75 71.538C2901.75 61.5507 2898.19 52.8986 2891.97 46.7412C2885.75 40.5846 2876.97 37.038 2866.75 37.038V41.038C2876.03 41.038 2883.75 44.2414 2889.16 49.5848C2894.56 54.9274 2897.75 62.5253 2897.75 71.538H2901.75ZM2861.75 87.788C2856.98 87.788 2853.15 86.1517 2850.51 83.3781C2847.86 80.5957 2846.25 76.4964 2846.25 71.288H2842.25C2842.25 77.3296 2844.14 82.4803 2847.61 86.1354C2851.1 89.7993 2856.02 91.788 2861.75 91.788V87.788ZM2846.25 71.288C2846.25 65.9271 2847.82 61.9105 2850.4 59.243C2852.99 56.582 2856.8 55.038 2861.75 55.038V51.038C2855.95 51.038 2851.01 52.869 2847.53 56.458C2844.06 60.0405 2842.25 65.1489 2842.25 71.288H2846.25ZM2861.75 55.038C2866.7 55.038 2870.44 56.5794 2872.95 59.252C2875.48 61.9404 2877 66.0214 2877 71.538H2881C2881 65.3046 2879.27 60.1356 2875.86 56.5115C2872.44 52.8716 2867.55 51.038 2861.75 51.038V55.038ZM2877 71.538C2877 76.7842 2875.49 80.8114 2872.95 83.5115C2870.42 86.1964 2866.68 87.788 2861.75 87.788V91.788C2867.57 91.788 2872.45 89.8796 2875.86 86.252C2879.26 82.6396 2881 77.5418 2881 71.538H2877ZM2947.5 108.288C2959.7 108.288 2970.04 104.257 2977.34 97.0556C2984.65 89.8514 2988.75 79.6271 2988.75 67.538H2984.75C2984.75 78.6989 2980.98 87.8496 2974.53 94.2079C2968.08 100.569 2958.8 104.288 2947.5 104.288V108.288ZM2988.75 67.538C2988.75 55.3375 2984.72 45.108 2977.44 37.9266C2970.16 30.7479 2959.81 26.788 2947.5 26.788V30.788C2958.94 30.788 2968.22 34.4531 2974.63 40.7744C2981.03 47.093 2984.75 56.2385 2984.75 67.538H2988.75ZM2947.5 26.788C2935.3 26.788 2924.96 30.8186 2917.66 38.0204C2910.35 45.2246 2906.25 55.4489 2906.25 67.538H2910.25C2910.25 56.3771 2914.02 47.2264 2920.47 40.8681C2926.92 34.5074 2936.2 30.788 2947.5 30.788V26.788ZM2906.25 67.538C2906.25 79.7385 2910.28 89.968 2917.56 97.1494C2924.84 104.328 2935.19 108.288 2947.5 108.288V104.288C2936.06 104.288 2926.78 100.623 2920.37 94.3016C2913.97 87.983 2910.25 78.8375 2910.25 67.538H2906.25ZM2947.5 87.788C2942.26 87.788 2938.16 85.9286 2935.33 82.6155C2932.48 79.2643 2930.75 74.2117 2930.75 67.538H2926.75C2926.75 74.8643 2928.65 80.9367 2932.29 85.2105C2935.97 89.5224 2941.24 91.788 2947.5 91.788V87.788ZM2930.75 67.538C2930.75 60.8643 2932.48 55.8117 2935.33 52.4605C2938.16 49.1474 2942.26 47.288 2947.5 47.288V43.288C2941.24 43.288 2935.97 45.5536 2932.29 49.8655C2928.65 54.1393 2926.75 60.2117 2926.75 67.538H2930.75ZM2947.5 47.288C2952.74 47.288 2956.84 49.1474 2959.67 52.4605C2962.52 55.8117 2964.25 60.8643 2964.25 67.538H2968.25C2968.25 60.2117 2966.35 54.1393 2962.71 49.8655C2959.03 45.5536 2953.76 43.288 2947.5 43.288V47.288ZM2964.25 67.538C2964.25 74.2117 2962.52 79.2643 2959.67 82.6155C2956.84 85.9286 2952.74 87.788 2947.5 87.788V91.788C2953.76 91.788 2959.03 89.5224 2962.71 85.2105C2966.35 80.9367 2968.25 74.8643 2968.25 67.538H2964.25ZM3042.5 30.038V28.038H3040.5V30.038H3042.5ZM3042.5 61.038V63.038H3044.5V61.038H3042.5ZM3015 30.038H3017V28.038H3015V30.038ZM2995 30.038V28.038H2993V30.038H2995ZM3042.5 79.038H3044.5V77.038H3042.5V79.038ZM3042.5 105.038H3040.5V107.038H3042.5V105.038ZM3062.5 105.038V107.038H3064.5V105.038H3062.5ZM3062.5 30.038H3064.5V28.038H3062.5V30.038ZM3040.5 30.038V61.038H3044.5V30.038H3040.5ZM3042.5 59.038H3027.75V63.038H3042.5V59.038ZM3027.75 59.038C3023.08 59.038 3020.5 58.3353 3019.07 57.1733C3017.77 56.1114 3017 54.304 3017 50.788H3013C3013 54.772 3013.86 58.0896 3016.55 60.2777C3019.12 62.3657 3022.92 63.038 3027.75 63.038V59.038ZM3017 50.788V30.038H3013V50.788H3017ZM3015 28.038H2995V32.038H3015V28.038ZM2993 30.038V50.788H2997V30.038H2993ZM2993 50.788C2993 60.034 2996.25 67.6802 3002.38 72.9869C3008.47 78.2628 3017.17 81.038 3027.75 81.038V77.038C3017.83 77.038 3010.16 74.4382 3005 69.9641C2999.87 65.5208 2997 59.042 2997 50.788H2993ZM3027.75 81.038H3042.5V77.038H3027.75V81.038ZM3040.5 79.038V105.038H3044.5V79.038H3040.5ZM3042.5 107.038H3062.5V103.038H3042.5V107.038ZM3064.5 105.038V30.038H3060.5V105.038H3064.5ZM3062.5 28.038H3042.5V32.038H3062.5V28.038ZM3133.25 30.038V28.038H3132.18L3131.58 28.9307L3133.25 30.038ZM3102.5 76.288H3100.5V82.9084L3104.17 77.3953L3102.5 76.288ZM3102.5 30.038H3104.5V28.038H3102.5V30.038ZM3083 30.038V28.038H3081V30.038H3083ZM3083 105.038H3081V107.038H3083V105.038ZM3102.75 105.038V107.038H3103.82L3104.42 106.145L3102.75 105.038ZM3133.5 58.788H3135.5V52.1676L3131.83 57.6807L3133.5 58.788ZM3133.5 105.038H3131.5V107.038H3133.5V105.038ZM3153 105.038V107.038H3155V105.038H3153ZM3153 30.038H3155V28.038H3153V30.038ZM3131.58 28.9307L3100.83 75.1807L3104.17 77.3953L3134.92 31.1453L3131.58 28.9307ZM3104.5 76.288V30.038H3100.5V76.288H3104.5ZM3102.5 28.038H3083V32.038H3102.5V28.038ZM3081 30.038V105.038H3085V30.038H3081ZM3083 107.038H3102.75V103.038H3083V107.038ZM3104.42 106.145L3135.17 59.8953L3131.83 57.6807L3101.08 103.931L3104.42 106.145ZM3131.5 58.788V105.038H3135.5V58.788H3131.5ZM3133.5 107.038H3153V103.038H3133.5V107.038ZM3155 105.038V30.038H3151V105.038H3155ZM3153 28.038H3133.25V32.038H3153V28.038ZM3233.75 4.28801L3235.74 4.49958L3235.95 2.55878L3234.01 2.30499L3233.75 4.28801ZM3218.5 2.28801L3218.76 0.30499L3216.87 0.0574799L3216.53 1.93024L3218.5 2.28801ZM3198.5 2.28801L3200.47 1.93024L3200.13 0.0574799L3198.24 0.30499L3198.5 2.28801ZM3183.25 4.28801L3182.99 2.30499L3181.05 2.55878L3181.26 4.49958L3183.25 4.28801ZM3223.75 30.038V28.038H3222.68L3222.08 28.9307L3223.75 30.038ZM3193 76.288H3191V82.9084L3194.67 77.3953L3193 76.288ZM3193 30.038H3195V28.038H3193V30.038ZM3173.5 30.038V28.038H3171.5V30.038H3173.5ZM3173.5 105.038H3171.5V107.038H3173.5V105.038ZM3193.25 105.038V107.038H3194.32L3194.92 106.145L3193.25 105.038ZM3224 58.788H3226V52.1676L3222.33 57.6807L3224 58.788ZM3224 105.038H3222V107.038H3224V105.038ZM3243.5 105.038V107.038H3245.5V105.038H3243.5ZM3243.5 30.038H3245.5V28.038H3243.5V30.038ZM3208.5 25.038C3216.06 25.038 3222.51 23.2151 3227.28 19.6762C3232.1 16.1089 3235.06 10.9045 3235.74 4.49958L3231.76 4.07644C3231.19 9.42149 3228.78 13.5921 3224.9 16.4623C3220.99 19.3609 3215.44 21.038 3208.5 21.038V25.038ZM3234.01 2.30499L3218.76 0.30499L3218.24 4.27103L3233.49 6.27103L3234.01 2.30499ZM3216.53 1.93024C3216.11 4.25685 3215.09 5.86399 3213.76 6.90287C3212.43 7.95342 3210.64 8.53801 3208.5 8.53801V12.538C3211.36 12.538 3214.07 11.7476 3216.24 10.0482C3218.41 8.33703 3219.89 5.81917 3220.47 2.64578L3216.53 1.93024ZM3208.5 8.53801C3206.36 8.53801 3204.57 7.95342 3203.24 6.90287C3201.91 5.86399 3200.89 4.25685 3200.47 1.93024L3196.53 2.64578C3197.11 5.81917 3198.59 8.33703 3200.76 10.0482C3202.93 11.7476 3205.64 12.538 3208.5 12.538V8.53801ZM3198.24 0.30499L3182.99 2.30499L3183.51 6.27103L3198.76 4.27103L3198.24 0.30499ZM3181.26 4.49958C3181.94 10.9045 3184.9 16.1089 3189.72 19.6762C3194.49 23.2151 3200.94 25.038 3208.5 25.038V21.038C3201.56 21.038 3196.01 19.3609 3192.1 16.4623C3188.22 13.5921 3185.81 9.42149 3185.24 4.07644L3181.26 4.49958ZM3222.08 28.9307L3191.33 75.1807L3194.67 77.3953L3225.42 31.1453L3222.08 28.9307ZM3195 76.288V30.038H3191V76.288H3195ZM3193 28.038H3173.5V32.038H3193V28.038ZM3171.5 30.038V105.038H3175.5V30.038H3171.5ZM3173.5 107.038H3193.25V103.038H3173.5V107.038ZM3194.92 106.145L3225.67 59.8953L3222.33 57.6807L3191.58 103.931L3194.92 106.145ZM3222 58.788V105.038H3226V58.788H3222ZM3224 107.038H3243.5V103.038H3224V107.038ZM3245.5 105.038V30.038H3241.5V105.038H3245.5ZM3243.5 28.038H3223.75V32.038H3243.5V28.038ZM3373.5 30.038H3375.5V28.038H3373.5V30.038ZM3304 30.038V28.038H3302V30.038H3304ZM3304 105.038H3302V107.038H3304V105.038ZM3324 105.038V107.038H3326V105.038H3324ZM3324 48.038V46.038H3322V48.038H3324ZM3353.5 48.038H3355.5V46.038H3353.5V48.038ZM3353.5 105.038H3351.5V107.038H3353.5V105.038ZM3373.5 105.038V107.038H3375.5V105.038H3373.5ZM3373.5 28.038H3304V32.038H3373.5V28.038ZM3302 30.038V105.038H3306V30.038H3302ZM3304 107.038H3324V103.038H3304V107.038ZM3326 105.038V48.038H3322V105.038H3326ZM3324 50.038H3353.5V46.038H3324V50.038ZM3351.5 48.038V105.038H3355.5V48.038H3351.5ZM3353.5 107.038H3373.5V103.038H3353.5V107.038ZM3375.5 105.038V30.038H3371.5V105.038H3375.5ZM3413 40.538L3411.01 40.7276L3411.49 45.7929L3414.59 41.7549L3413 40.538ZM3412 30.038L3413.99 29.8484L3413.82 28.038H3412V30.038ZM3394 30.038V28.038H3392V30.038H3394ZM3394 130.038H3392V132.038H3394V130.038ZM3414 130.038V132.038H3416V130.038H3414ZM3414 96.288L3415.47 94.9339L3412 91.1601V96.288H3414ZM3437.25 26.788C3426.38 26.788 3417.54 31.3254 3411.41 39.3211L3414.59 41.7549C3419.96 34.7506 3427.62 30.788 3437.25 30.788V26.788ZM3414.99 40.3484L3413.99 29.8484L3410.01 30.2276L3411.01 40.7276L3414.99 40.3484ZM3412 28.038H3394V32.038H3412V28.038ZM3392 30.038V130.038H3396V30.038H3392ZM3394 132.038H3414V128.038H3394V132.038ZM3416 130.038V96.288H3412V130.038H3416ZM3412.53 97.6421C3418.65 104.295 3426.93 108.288 3437.25 108.288V104.288C3428.07 104.288 3420.85 100.781 3415.47 94.9339L3412.53 97.6421ZM3437.25 108.288C3447.34 108.288 3455.91 104.153 3461.91 96.9086C3467.9 89.6945 3471.25 79.5232 3471.25 67.538H3467.25C3467.25 78.8028 3464.1 88.0065 3458.84 94.3549C3453.59 100.673 3446.16 104.288 3437.25 104.288V108.288ZM3471.25 67.538C3471.25 55.4508 3468.04 45.2738 3462.11 38.0786C3456.14 30.8442 3447.57 26.788 3437.25 26.788V30.788C3446.43 30.788 3453.86 34.3568 3459.02 40.6224C3464.21 46.9272 3467.25 56.1252 3467.25 67.538H3471.25ZM3431 87.788C3425.93 87.788 3422.09 85.9003 3419.48 82.5808C3416.81 79.2 3415.25 74.1275 3415.25 67.538H3411.25C3411.25 74.6985 3412.94 80.751 3416.34 85.0577C3419.78 89.4257 3424.82 91.788 3431 91.788V87.788ZM3415.25 67.538C3415.25 60.9485 3416.81 55.876 3419.48 52.4952C3422.09 49.1757 3425.93 47.288 3431 47.288V43.288C3424.82 43.288 3419.78 45.6503 3416.34 50.0183C3412.94 54.325 3411.25 60.3775 3411.25 67.538H3415.25ZM3431 47.288C3436.07 47.288 3439.98 49.1795 3442.66 52.5108C3445.38 55.8951 3447 60.9648 3447 67.538H3451C3451 60.3612 3449.24 54.3059 3445.78 50.0027C3442.27 45.6465 3437.18 43.288 3431 43.288V47.288ZM3447 67.538C3447 74.1112 3445.38 79.1809 3442.66 82.5652C3439.98 85.8965 3436.07 87.788 3431 87.788V91.788C3437.18 91.788 3442.27 89.4295 3445.78 85.0733C3449.24 80.7701 3451 74.7148 3451 67.538H3447ZM3518.5 108.288C3530.7 108.288 3541.04 104.257 3548.34 97.0556C3555.65 89.8514 3559.75 79.6271 3559.75 67.538H3555.75C3555.75 78.6989 3551.98 87.8496 3545.53 94.2079C3539.08 100.569 3529.8 104.288 3518.5 104.288V108.288ZM3559.75 67.538C3559.75 55.3375 3555.72 45.108 3548.44 37.9266C3541.16 30.7479 3530.81 26.788 3518.5 26.788V30.788C3529.94 30.788 3539.22 34.4531 3545.63 40.7744C3552.03 47.093 3555.75 56.2385 3555.75 67.538H3559.75ZM3518.5 26.788C3506.3 26.788 3495.96 30.8186 3488.66 38.0204C3481.35 45.2246 3477.25 55.4489 3477.25 67.538H3481.25C3481.25 56.3771 3485.02 47.2264 3491.47 40.8681C3497.92 34.5074 3507.2 30.788 3518.5 30.788V26.788ZM3477.25 67.538C3477.25 79.7385 3481.28 89.968 3488.56 97.1494C3495.84 104.328 3506.19 108.288 3518.5 108.288V104.288C3507.06 104.288 3497.78 100.623 3491.37 94.3016C3484.97 87.983 3481.25 78.8375 3481.25 67.538H3477.25ZM3518.5 87.788C3513.26 87.788 3509.16 85.9286 3506.33 82.6155C3503.48 79.2643 3501.75 74.2117 3501.75 67.538H3497.75C3497.75 74.8643 3499.65 80.9367 3503.29 85.2105C3506.97 89.5224 3512.24 91.788 3518.5 91.788V87.788ZM3501.75 67.538C3501.75 60.8643 3503.48 55.8117 3506.33 52.4605C3509.16 49.1474 3513.26 47.288 3518.5 47.288V43.288C3512.24 43.288 3506.97 45.5536 3503.29 49.8655C3499.65 54.1393 3497.75 60.2117 3497.75 67.538H3501.75ZM3518.5 47.288C3523.74 47.288 3527.84 49.1474 3530.67 52.4605C3533.52 55.8117 3535.25 60.8643 3535.25 67.538H3539.25C3539.25 60.2117 3537.35 54.1393 3533.71 49.8655C3530.03 45.5536 3524.76 43.288 3518.5 43.288V47.288ZM3535.25 67.538C3535.25 74.2117 3533.52 79.2643 3530.67 82.6155C3527.84 85.9286 3523.74 87.788 3518.5 87.788V91.788C3524.76 91.788 3530.03 89.5224 3533.71 85.2105C3537.35 80.9367 3539.25 74.8643 3539.25 67.538H3535.25ZM3641.25 83.788L3643.17 84.3596L3643.74 82.4507L3641.83 81.8737L3641.25 83.788ZM3622.25 78.038L3622.83 76.1237L3621.02 75.5769L3620.37 77.3495L3622.25 78.038ZM3622.25 57.038L3620.37 57.7265L3621.02 59.4991L3622.83 58.9523L3622.25 57.038ZM3641.25 51.288L3641.83 53.2023L3643.74 52.6253L3643.17 50.7164L3641.25 51.288ZM3606.5 108.288C3624.39 108.288 3638.6 99.6716 3643.17 84.3596L3639.33 83.2164C3635.4 96.4044 3623.11 104.288 3606.5 104.288V108.288ZM3641.83 81.8737L3622.83 76.1237L3621.67 79.9523L3640.67 85.7023L3641.83 81.8737ZM3620.37 77.3495C3619.1 80.8097 3617.25 83.3971 3614.93 85.121C3612.63 86.8369 3609.74 87.788 3606.25 87.788V91.788C3610.51 91.788 3614.25 90.6141 3617.32 88.33C3620.38 86.0539 3622.65 82.7663 3624.13 78.7265L3620.37 77.3495ZM3606.25 87.788C3601.31 87.788 3597.4 85.9035 3594.68 82.5576C3591.92 79.1664 3590.25 74.0947 3590.25 67.538H3586.25C3586.25 74.7313 3588.08 80.7846 3591.57 85.0809C3595.1 89.4225 3600.19 91.788 3606.25 91.788V87.788ZM3590.25 67.538C3590.25 60.9813 3591.92 55.9096 3594.68 52.5184C3597.4 49.1725 3601.31 47.288 3606.25 47.288V43.288C3600.19 43.288 3595.1 45.6535 3591.57 49.9951C3588.08 54.2914 3586.25 60.3447 3586.25 67.538H3590.25ZM3606.25 47.288C3609.74 47.288 3612.63 48.2391 3614.93 49.955C3617.25 51.6789 3619.1 54.2663 3620.37 57.7265L3624.13 56.3495C3622.65 52.3097 3620.38 49.0221 3617.32 46.746C3614.25 44.4619 3610.51 43.288 3606.25 43.288V47.288ZM3622.83 58.9523L3641.83 53.2023L3640.67 49.3737L3621.67 55.1237L3622.83 58.9523ZM3643.17 50.7164C3638.6 35.4044 3624.39 26.788 3606.5 26.788V30.788C3623.11 30.788 3635.4 38.6716 3639.33 51.8596L3643.17 50.7164ZM3606.5 26.788C3594.42 26.788 3584.2 30.8232 3576.99 38.03C3569.79 45.2368 3565.75 55.4585 3565.75 67.538H3569.75C3569.75 56.3675 3573.46 47.2142 3579.82 40.8585C3586.18 34.5028 3595.33 30.788 3606.5 30.788V26.788ZM3565.75 67.538C3565.75 79.6175 3569.79 89.8391 3576.99 97.046C3584.2 104.253 3594.42 108.288 3606.5 108.288V104.288C3595.33 104.288 3586.18 100.573 3579.82 94.2175C3573.46 87.8619 3569.75 78.7085 3569.75 67.538H3565.75ZM3717 30.038H3719V28.038H3717V30.038ZM3645 30.038V28.038H3643V30.038H3645ZM3645 48.038H3643V50.038H3645V48.038ZM3671 48.038H3673V46.038H3671V48.038ZM3671 105.038H3669V107.038H3671V105.038ZM3691 105.038V107.038H3693V105.038H3691ZM3691 48.038V46.038H3689V48.038H3691ZM3717 48.038V50.038H3719V48.038H3717ZM3717 28.038H3645V32.038H3717V28.038ZM3643 30.038V48.038H3647V30.038H3643ZM3645 50.038H3671V46.038H3645V50.038ZM3669 48.038V105.038H3673V48.038H3669ZM3671 107.038H3691V103.038H3671V107.038ZM3693 105.038V48.038H3689V105.038H3693ZM3691 50.038H3717V46.038H3691V50.038ZM3719 48.038V30.038H3715V48.038H3719ZM3730.25 20.538H3728.25V22.538H3730.25V20.538ZM3751.75 20.538V22.538H3753.75V20.538H3751.75ZM3751.75 3.53801H3753.75V1.53801H3751.75V3.53801ZM3730.25 3.53801V1.53801H3728.25V3.53801H3730.25ZM3731 105.038H3729V107.038H3731V105.038ZM3751 105.038V107.038H3753V105.038H3751ZM3751 30.038H3753V28.038H3751V30.038ZM3731 30.038V28.038H3729V30.038H3731ZM3730.25 22.538H3751.75V18.538H3730.25V22.538ZM3753.75 20.538V3.53801H3749.75V20.538H3753.75ZM3751.75 1.53801H3730.25V5.53801H3751.75V1.53801ZM3728.25 3.53801V20.538H3732.25V3.53801H3728.25ZM3731 107.038H3751V103.038H3731V107.038ZM3753 105.038V30.038H3749V105.038H3753ZM3751 28.038H3731V32.038H3751V28.038ZM3729 30.038V105.038H3733V30.038H3729ZM3791.75 40.538L3789.76 40.7276L3790.24 45.7929L3793.34 41.7549L3791.75 40.538ZM3790.75 30.038L3792.74 29.8484L3792.57 28.038H3790.75V30.038ZM3772.75 30.038V28.038H3770.75V30.038H3772.75ZM3772.75 130.038H3770.75V132.038H3772.75V130.038ZM3792.75 130.038V132.038H3794.75V130.038H3792.75ZM3792.75 96.288L3794.22 94.9339L3790.75 91.1601V96.288H3792.75ZM3816 26.788C3805.13 26.788 3796.29 31.3254 3790.16 39.3211L3793.34 41.7549C3798.71 34.7506 3806.37 30.788 3816 30.788V26.788ZM3793.74 40.3484L3792.74 29.8484L3788.76 30.2276L3789.76 40.7276L3793.74 40.3484ZM3790.75 28.038H3772.75V32.038H3790.75V28.038ZM3770.75 30.038V130.038H3774.75V30.038H3770.75ZM3772.75 132.038H3792.75V128.038H3772.75V132.038ZM3794.75 130.038V96.288H3790.75V130.038H3794.75ZM3791.28 97.6421C3797.4 104.295 3805.68 108.288 3816 108.288V104.288C3806.82 104.288 3799.6 100.781 3794.22 94.9339L3791.28 97.6421ZM3816 108.288C3826.09 108.288 3834.66 104.153 3840.66 96.9086C3846.65 89.6945 3850 79.5232 3850 67.538H3846C3846 78.8028 3842.85 88.0065 3837.59 94.3549C3832.34 100.673 3824.91 104.288 3816 104.288V108.288ZM3850 67.538C3850 55.4508 3846.79 45.2738 3840.86 38.0786C3834.89 30.8442 3826.32 26.788 3816 26.788V30.788C3825.18 30.788 3832.61 34.3568 3837.77 40.6224C3842.96 46.9272 3846 56.1252 3846 67.538H3850ZM3809.75 87.788C3804.68 87.788 3800.84 85.9003 3798.23 82.5808C3795.56 79.2 3794 74.1275 3794 67.538H3790C3790 74.6985 3791.69 80.751 3795.09 85.0577C3798.53 89.4257 3803.57 91.788 3809.75 91.788V87.788ZM3794 67.538C3794 60.9485 3795.56 55.876 3798.23 52.4952C3800.84 49.1757 3804.68 47.288 3809.75 47.288V43.288C3803.57 43.288 3798.53 45.6503 3795.09 50.0183C3791.69 54.325 3790 60.3775 3790 67.538H3794ZM3809.75 47.288C3814.82 47.288 3818.73 49.1795 3821.41 52.5108C3824.13 55.8951 3825.75 60.9648 3825.75 67.538H3829.75C3829.75 60.3612 3827.99 54.3059 3824.53 50.0027C3821.02 45.6465 3815.93 43.288 3809.75 43.288V47.288ZM3825.75 67.538C3825.75 74.1112 3824.13 79.1809 3821.41 82.5652C3818.73 85.8965 3814.82 87.788 3809.75 87.788V91.788C3815.93 91.788 3821.02 89.4295 3824.53 85.0733C3827.99 80.7701 3829.75 74.7148 3829.75 67.538H3825.75Z" fill="url(#paint0_linear_263_738)" fill-opacity="0.8"/>
<defs>
<linearGradient id="paint0_linear_263_738" x1="1925" y1="-42.962" x2="1925" y2="149.038" gradientUnits="userSpaceOnUse">
<stop stop-color="#4238E5"/>
<stop offset="1" stop-color="#E01DAA"/>
</linearGradient>
</defs>
</svg>
